<svg width="159" height="159" viewBox="0 0 159 159" fill="none" xmlns="http://www.w3.org/2000/svg">
<path d="M79.5161 0C35.641 0 0.0322266 35.6088 0.0322266 79.4839C0.0322266 123.359 35.641 158.968 79.5161 158.968C123.391 158.968 159 123.359 159 79.4839C159 35.6088 123.391 0 79.5161 0ZM79.5161 23.8452C92.7104 23.8452 103.361 34.496 103.361 47.6903C103.361 60.8846 92.7104 71.5355 79.5161 71.5355C66.3218 71.5355 55.6709 60.8846 55.6709 47.6903C55.6709 34.496 66.3218 23.8452 79.5161 23.8452ZM79.5161 136.712C70.0723 136.712 60.7753 134.375 52.4541 129.91C44.1328 125.444 37.0461 118.988 31.8258 111.118C32.0642 95.3011 63.6193 86.6374 79.5161 86.6374C95.3334 86.6374 126.968 95.3011 127.206 111.118C121.986 118.988 114.899 125.444 106.578 129.91C98.2569 134.375 88.9599 136.712 79.5161 136.712Z" fill="#CCCCCC"/>
</svg>
