<svg width="32" height="32" viewBox="0 0 32 32" fill="none" xmlns="http://www.w3.org/2000/svg">
<path d="M0 4C0 1.79086 1.79086 0 4 0H28C30.2091 0 32 1.79086 32 4V28C32 30.2091 30.2091 32 28 32H4C1.79086 32 0 30.2091 0 28V4Z" fill="#333333"/>
<path d="M27.2812 22.1667H7.875V8.70833C7.875 8.31698 7.55336 8 7.15625 8H5.71875C5.32164 8 5 8.31698 5 8.70833V23.5833C5 24.3656 5.64373 25 6.4375 25H27.2812C27.6784 25 28 24.683 28 24.2917V22.875C28 22.4836 27.6784 22.1667 27.2812 22.1667ZM25.8438 9.41667H20.5403C19.5798 9.41667 19.0987 10.5611 19.7779 11.2304L21.2334 12.6648L17.9375 15.9134L14.6416 12.6653C14.0801 12.1119 13.1699 12.1119 12.6089 12.6653L9.52318 15.7062C9.24242 15.9829 9.24242 16.4314 9.52318 16.7081L10.5393 17.7095C10.8201 17.9862 11.2751 17.9862 11.5559 17.7095L13.625 15.6699L16.9209 18.9181C17.4824 19.4715 18.3926 19.4715 18.9536 18.9181L23.2661 14.6681L24.7216 16.1024C25.4008 16.7718 26.562 16.2977 26.562 15.3512V10.125C26.5625 9.73365 26.2409 9.41667 25.8438 9.41667Z" fill="white"/>
</svg>
