<svg width="432" height="196" viewBox="0 0 432 196" fill="none" xmlns="http://www.w3.org/2000/svg">
<g clip-path="url(#clip0)">
<path d="M0 8C0 3.58172 3.58172 0 8 0H424C428.418 0 432 3.58172 432 8V188C432 192.418 428.418 196 424 196H8C3.58172 196 0 192.418 0 188V8Z" fill="#0DA8EB"/>
<path d="M276 276L0 0L-115 -16V276H276Z" fill="#0088C4"/>
<g clip-path="url(#clip1)">
<path d="M173.776 114.632C173.691 114.632 145.012 110.33 145.012 110.33L144.877 110.637C144.833 110.737 144.761 110.822 144.669 110.882C144.578 110.942 144.472 110.974 144.363 110.976C144.208 110.965 144.063 110.895 143.958 110.781C143.852 110.667 143.794 110.517 143.794 110.361L146.438 79.6626C146.37 78.3957 146.762 77.147 147.539 76.1472C148.672 74.6907 150.557 73.8057 153.139 73.5168C159.333 72.8346 165.783 70.7942 166.891 61.0593C167.558 55.1101 168.776 51.8406 170.741 50.7159C171.197 50.454 171.714 50.3163 172.24 50.3164C172.856 50.332 173.461 50.4808 174.015 50.7528C174.265 50.8668 174.488 51.0322 174.67 51.2383L174.902 51.5025L175.208 51.3366C175.973 50.8985 176.832 50.6538 177.711 50.6237C178.095 50.62 178.476 50.6845 178.838 50.8142C179.715 51.1628 180.422 51.8421 180.808 52.7071L181.126 53.3217L181.549 52.7624L181.708 52.5658C182.062 52.1878 182.494 51.8923 182.974 51.7001C183.454 51.508 183.97 51.4237 184.486 51.4534C184.854 51.4567 185.215 51.543 185.545 51.7058C185.874 51.8685 186.163 52.1036 186.39 52.3937C187.038 53.1804 187.491 54.514 187.73 56.3639L187.828 57.1075L188.44 56.665C189.198 56.0816 190.123 55.7604 191.078 55.7493C191.613 55.7489 192.143 55.862 192.632 56.0812C193.373 56.4108 193.966 57.003 194.3 57.7445C194.633 58.4861 194.682 59.3249 194.438 60.1005C193.495 63.5299 185.943 76.94 185.619 77.5546C184.297 80.775 181.898 82.4713 179.78 83.9893C177.161 85.833 175.092 87.3326 175.453 90.8541C175.453 90.9402 174.345 114.11 174.345 114.11C174.332 114.269 174.257 114.417 174.137 114.522C174.033 114.598 173.906 114.637 173.776 114.632V114.632Z" fill="white"/>
<path d="M175.82 164.173L174.413 112.622L142.38 108.707L141.242 111.282C130.477 99.8753 115.317 89.9375 79.4291 89.9375C35.0401 89.9375 22.4205 106.531 9.98449 120.9C0.34535 132.036 -20.7139 158.549 -20.7139 158.549L125.556 161.204L123.72 169.808L128.892 169.563C129.927 175.22 132.971 180.308 137.459 183.882C141.947 187.456 147.574 189.275 153.295 188.999C159.017 188.724 164.444 186.373 168.571 182.384C172.697 178.395 175.243 173.038 175.735 167.307C175.808 166.551 175.845 165.795 175.845 165.021C175.839 164.757 175.833 164.462 175.82 164.173Z" fill="#16869E"/>
<path d="M101.375 57.2715C101.375 61.7057 100.065 66.0404 97.6122 69.7273C95.159 73.4142 91.6721 76.2878 87.5926 77.9847C83.513 79.6817 79.024 80.1257 74.6931 79.2606C70.3623 78.3955 66.3842 76.2602 63.2618 73.1247C60.1395 69.9892 58.0131 65.9944 57.1517 61.6454C56.2902 57.2963 56.7323 52.7884 58.4221 48.6917C60.1119 44.595 62.9735 41.0935 66.645 38.63C70.3166 36.1665 74.6331 34.8516 79.0487 34.8516C84.97 34.8516 90.6487 37.2137 94.8357 41.4182C99.0226 45.6227 101.375 51.3253 101.375 57.2715V57.2715Z" fill="#1A1A1A"/>
<path d="M91.4855 90.3559V85.5437C94.4537 83.1592 96.504 79.2566 97.1466 73.0432C98.3917 72.9888 99.5919 72.5606 100.592 71.814C103.309 69.8228 104.136 66.1168 102.428 63.5356C101.754 62.5633 100.778 61.8432 99.6528 61.4884C98.5274 61.1336 97.3165 61.1641 96.2102 61.5751C93.6153 53.856 86.9138 48.3555 79.074 48.3555C71.2341 48.3555 64.5143 53.8867 61.9377 61.5751C60.8277 61.165 59.6134 61.1369 58.4857 61.4951C57.358 61.8533 56.3807 62.5775 55.7075 63.554C54.0122 66.1353 54.8384 69.8412 57.5435 71.8324C58.5438 72.579 59.744 73.0072 60.9891 73.0616C61.6011 79.275 63.6819 83.1776 66.6502 85.5622V90.4788C62.6828 90.8004 58.7356 91.338 54.8262 92.089C54.9669 92.6299 56.7968 98.8494 66.6502 101.873C70.6904 103.032 74.8789 103.585 79.0801 103.514C100.708 103.514 105.243 92.1566 105.25 92.1443C100.701 91.2772 96.1045 90.6801 91.4855 90.3559V90.3559Z" fill="white"/>
<path d="M66.6378 95.3783C66.5055 95.3791 66.3743 95.3536 66.2518 95.3033C66.1294 95.253 66.018 95.1789 65.9241 95.0852C65.8303 94.9916 65.7558 94.8802 65.705 94.7575C65.6542 94.6348 65.628 94.5032 65.628 94.3704V86.0367C62.568 83.4001 60.7319 79.4422 60.071 73.9847C58.9299 73.7902 57.8502 73.3292 56.9191 72.6388C53.7795 70.3341 52.837 66.0075 54.826 62.9899C55.5161 61.9582 56.4962 61.156 57.6416 60.6854C58.787 60.2148 60.046 60.0971 61.2583 60.3472C64.2571 52.5174 71.3013 47.3242 79.0493 47.3242C86.7974 47.3242 93.8477 52.542 96.8466 60.3472C98.0576 60.0958 99.3157 60.2117 100.461 60.68C101.606 61.1484 102.587 61.9481 103.279 62.9776C105.262 65.9952 104.325 70.3218 101.186 72.6265C100.258 73.3089 99.1855 73.7655 98.0522 73.9601C97.3607 79.4176 95.5369 83.3755 92.4952 86.0121V94.2413C92.4754 94.4958 92.3608 94.7335 92.1741 94.9068C91.9875 95.0802 91.7426 95.1765 91.4884 95.1765C91.2342 95.1765 90.9893 95.0802 90.8027 94.9068C90.6161 94.7335 90.5015 94.4958 90.4817 94.2413V85.545C90.4822 85.3943 90.5159 85.2456 90.5805 85.1096C90.645 84.9736 90.7388 84.8536 90.855 84.7583C93.8416 82.3553 95.5736 78.4896 96.1428 72.9399C96.1678 72.6974 96.2796 72.4721 96.4574 72.306C96.6352 72.1399 96.867 72.0441 97.1097 72.0365C98.1543 71.9876 99.1603 71.6258 99.9984 70.9979C102.281 69.3262 103.003 66.2287 101.596 64.0961C101.046 63.3045 100.25 62.7193 99.3319 62.4333C98.4141 62.1472 97.4276 62.1766 96.5283 62.5167C96.2782 62.6016 96.005 62.5849 95.767 62.47C95.5291 62.3552 95.3454 62.1513 95.2553 61.9021C92.74 54.4042 86.2282 49.3646 79.0493 49.3646C71.8705 49.3646 65.3648 54.4042 62.8495 61.9021C62.7594 62.1513 62.5757 62.3552 62.3378 62.47C62.0999 62.5849 61.8266 62.6016 61.5765 62.5167C60.6772 62.1766 59.6907 62.1472 58.7729 62.4333C57.8552 62.7193 57.0586 63.3045 56.5091 64.0961C55.1014 66.2287 55.8236 69.3262 58.1064 70.9979C58.9445 71.6258 59.9506 71.9876 60.9951 72.0365C61.2372 72.0443 61.4682 72.1403 61.645 72.3065C61.8218 72.4727 61.9323 72.6979 61.9559 72.9399C62.5312 78.4712 64.2571 82.3553 67.2437 84.7583C67.3617 84.8524 67.4571 84.972 67.5228 85.1082C67.5884 85.2444 67.6228 85.3937 67.6231 85.545V94.3458C67.6264 94.4787 67.6034 94.6109 67.5556 94.7348C67.5078 94.8587 67.436 94.9719 67.3444 95.0679C67.2528 95.1639 67.1432 95.2407 67.022 95.294C66.9007 95.3472 66.7702 95.3759 66.6378 95.3783V95.3783Z" fill="#1A1A1A"/>
<path d="M152.148 190.072C146.536 190.051 141.097 188.116 136.724 184.584C132.351 181.052 129.302 176.133 128.077 170.633L123.793 170.842C123.638 170.851 123.483 170.824 123.341 170.762C123.198 170.7 123.072 170.606 122.972 170.486C122.873 170.367 122.802 170.226 122.766 170.074C122.73 169.923 122.73 169.765 122.765 169.613L124.313 162.195L-21.9689 161.138C-22.1618 161.133 -22.3492 161.073 -22.5088 160.964C-22.6684 160.855 -22.7933 160.702 -22.8685 160.523C-22.9494 160.351 -22.9808 160.16 -22.9592 159.971C-22.9375 159.782 -22.8637 159.603 -22.7461 159.454C-22.5258 159.178 -0.340465 131.251 9.20075 120.225L10.8593 118.302C21.3981 106.01 33.3445 92.1329 66.5888 89.4165C66.8542 89.3945 67.1174 89.4792 67.3206 89.6521C67.5237 89.825 67.6501 90.0718 67.6721 90.3383C67.694 90.6048 67.6096 90.8692 67.4374 91.0732C67.2652 91.2772 67.0194 91.4041 66.754 91.4261C34.3176 94.0688 23.1729 107.049 12.3832 119.611C11.8263 120.256 11.2755 120.901 10.7185 121.541C2.5421 130.987 -14.9858 152.933 -19.8819 159.079L125.525 160.167C125.675 160.169 125.822 160.204 125.957 160.27C126.091 160.336 126.209 160.431 126.302 160.548C126.396 160.664 126.462 160.798 126.497 160.943C126.532 161.088 126.535 161.238 126.504 161.384L124.968 168.759L128.842 168.568C129.084 168.558 129.322 168.636 129.512 168.787C129.702 168.938 129.831 169.153 129.877 169.392C130.855 174.819 133.764 179.705 138.063 183.138C142.361 186.572 147.756 188.319 153.242 188.055C158.729 187.791 163.932 185.534 167.884 181.704C171.836 177.873 174.267 172.731 174.725 167.235C174.798 166.497 174.829 165.76 174.829 165.041C174.829 164.764 174.829 164.481 174.829 164.205L173.452 113.514L143.016 109.796L142.184 111.689C142.116 111.84 142.011 111.972 141.881 112.073C141.75 112.175 141.597 112.243 141.434 112.271C141.271 112.3 141.104 112.288 140.947 112.237C140.789 112.185 140.647 112.097 140.532 111.978C132.061 102.999 119.681 93.5403 92.0545 91.4016C91.7883 91.3812 91.541 91.2555 91.3672 91.052C91.1933 90.8486 91.107 90.5841 91.1273 90.3168C91.1476 90.0495 91.2728 89.8012 91.4754 89.6266C91.6779 89.452 91.9413 89.3654 92.2075 89.3857C119.405 91.4876 132.239 100.577 140.948 109.495L141.48 108.296C141.565 108.095 141.712 107.927 141.899 107.816C142.086 107.705 142.305 107.658 142.521 107.682L174.553 111.597C174.792 111.625 175.013 111.738 175.175 111.917C175.336 112.095 175.429 112.326 175.435 112.568L176.799 164.149C176.799 164.444 176.799 164.764 176.799 165.047C176.799 165.833 176.763 166.632 176.689 167.425C176.161 173.599 173.348 179.349 168.804 183.542C164.261 187.734 158.318 190.064 152.148 190.072Z" fill="#1A1A1A"/>
<path d="M-24.1049 163.595C-23.447 162.017 -22.4933 160.582 -21.2958 159.366C-16.259 154.413 -7.72756 155.064 -1.66867 155.894C5.97531 156.976 52.5981 164.043 52.6287 164.209L56.5639 184.115C56.5639 184.115 53.6936 187.281 17.4933 189.481C15.8531 189.585 14.2068 189.659 12.5972 189.708C3.60684 189.972 -5.29176 191.361 -14.2026 188.964C-17.6911 188.03 -21.2591 186.432 -23.4868 183.095C-25.7145 179.758 -26.2837 175.038 -25.8553 170.724C-25.6432 168.271 -25.0527 165.866 -24.1049 163.595V163.595Z" fill="white"/>
<path d="M-2.31737 191.368C-6.4213 191.437 -10.5164 190.962 -14.4963 189.955C-19.1354 188.725 -22.3607 186.654 -24.3558 183.674C-26.4856 180.484 -27.373 175.85 -26.8528 170.62C-26.6333 168.066 -26.0137 165.562 -25.0168 163.202C-24.3102 161.513 -23.2858 159.977 -21.9996 158.679C-16.7608 153.522 -8.30894 153.965 -1.52789 154.923C2.19925 155.452 15.3819 157.431 28.4605 159.428C34.7703 160.393 40.8415 161.321 45.3397 162.028L50.7376 162.882C53.4488 163.331 53.4488 163.331 53.5896 164.044L57.5248 183.95C57.5543 184.106 57.5475 184.266 57.505 184.418C57.4626 184.571 57.3856 184.711 57.28 184.829C56.7598 185.407 52.384 188.406 17.5301 190.526C15.8226 190.624 14.1518 190.704 12.5728 190.747C10.5103 190.809 8.41726 190.932 6.39151 191.049C3.53955 191.196 0.620267 191.368 -2.31737 191.368ZM-23.1807 164.013C-24.085 166.183 -24.6486 168.48 -24.8515 170.823C-25.3228 175.586 -24.5578 179.746 -22.685 182.549C-20.9469 185.142 -18.1806 186.851 -13.9761 188.006C-7.27464 189.801 -0.683313 189.42 6.29971 189.014C8.33769 188.891 10.4491 188.775 12.5361 188.713C14.0967 188.664 15.743 188.59 17.4321 188.486C46.2394 186.734 53.712 184.38 55.4379 183.618L51.7658 165.082C46.2577 164.124 5.58366 157.953 -1.81553 156.909C-8.13758 156.011 -15.9835 155.569 -20.5981 160.104C-21.703 161.228 -22.582 162.555 -23.1869 164.013H-23.1807Z" fill="#1A1A1A"/>
<path d="M-0.867044 188.979C-4.34937 188.044 -7.91738 186.447 -10.1451 183.109C-12.3728 179.772 -12.9236 175.04 -12.483 170.726C-12.2709 168.273 -11.6804 165.867 -10.7326 163.596C-10.0745 162.021 -9.1232 160.586 -7.92962 159.368C-6.10443 157.646 -3.84358 156.46 -1.39337 155.939L-1.66878 155.896C-7.72766 155.035 -16.2591 154.415 -21.2959 159.368C-22.4934 160.584 -23.4471 162.019 -24.105 163.596C-25.0528 165.867 -25.6433 168.273 -25.8554 170.726C-26.2838 175.028 -25.788 179.717 -23.5175 183.109C-21.2469 186.502 -17.7218 188.026 -14.2333 188.979C-7.74602 190.724 -1.26485 190.46 5.25304 190.085C3.18651 189.883 1.13973 189.513 -0.867044 188.979V188.979Z" fill="#1A1A1A"/>
<path d="M83.6336 62.126C83.4492 62.1263 83.2683 62.0757 83.1107 61.9796C82.9531 61.8835 82.8249 61.7457 82.7402 61.5812C82.6555 61.4168 82.6175 61.2321 82.6304 61.0474C82.6433 60.8627 82.7067 60.6851 82.8135 60.5342C83.2999 59.8971 83.9307 59.3858 84.6534 59.0427C85.3762 58.6995 86.17 58.5346 86.969 58.5614C88.4667 58.6573 89.8805 59.2897 90.9532 60.3437C91.1342 60.5401 91.23 60.8007 91.2197 61.0681C91.2094 61.3355 91.0937 61.5878 90.8981 61.7695C90.7025 61.9513 90.443 62.0475 90.1768 62.0372C89.9105 62.0268 89.6592 61.9106 89.4782 61.7142C88.7579 61.039 87.8294 60.6313 86.8466 60.5588C86.3852 60.5453 85.9272 60.6419 85.5102 60.8406C85.0931 61.0393 84.729 61.3345 84.4475 61.7019C84.3538 61.831 84.2315 61.9365 84.0902 62.0101C83.949 62.0837 83.7927 62.1234 83.6336 62.126Z" fill="#1A1A1A"/>
<path d="M86.6255 66.7793C86.3252 66.7793 86.0372 66.6595 85.8249 66.4463C85.6126 66.2331 85.4933 65.9439 85.4933 65.6423V64.7635C85.4819 64.6076 85.5026 64.4509 85.5541 64.3034C85.6057 64.1559 85.687 64.0206 85.793 63.9061C85.8989 63.7915 86.0273 63.7002 86.17 63.6377C86.3127 63.5752 86.4668 63.543 86.6225 63.543C86.7781 63.543 86.9322 63.5752 87.0749 63.6377C87.2176 63.7002 87.346 63.7915 87.4519 63.9061C87.5579 64.0206 87.6392 64.1559 87.6908 64.3034C87.7423 64.4509 87.763 64.6076 87.7516 64.7635V65.6423C87.7516 65.9428 87.6332 66.2311 87.4222 66.4441C87.2111 66.6572 86.9247 66.7777 86.6255 66.7793V66.7793Z" fill="#1A1A1A"/>
<path d="M71.6011 66.7793C71.3008 66.7793 71.0128 66.6595 70.8005 66.4463C70.5882 66.2331 70.4689 65.9439 70.4689 65.6423V64.7635C70.4574 64.6076 70.4782 64.4509 70.5297 64.3034C70.5813 64.1559 70.6626 64.0206 70.7686 63.9061C70.8745 63.7915 71.0029 63.7002 71.1456 63.6377C71.2883 63.5752 71.4424 63.543 71.598 63.543C71.7537 63.543 71.9078 63.5752 72.0505 63.6377C72.1932 63.7002 72.3216 63.7915 72.4275 63.9061C72.5335 64.0206 72.6148 64.1559 72.6664 64.3034C72.7179 64.4509 72.7386 64.6076 72.7272 64.7635V65.6423C72.7272 65.9428 72.6088 66.2311 72.3978 66.4441C72.1867 66.6572 71.9003 66.7777 71.6011 66.7793V66.7793Z" fill="#1A1A1A"/>
<path d="M77.6968 72.4593C77.4306 72.4593 77.1753 72.3531 76.9871 72.1641C76.7988 71.9751 76.6931 71.7187 76.6931 71.4514V65.3056C76.6993 64.4691 76.495 63.6447 76.0991 62.9087C75.7032 62.1728 75.1286 61.5491 74.4287 61.0957C73.923 60.7602 73.3332 60.5749 72.7273 60.561C71.2523 60.561 69.2327 61.5812 68.5779 61.9746C68.4645 62.0428 68.339 62.0879 68.2083 62.1073C68.0776 62.1268 67.9444 62.1202 67.8162 62.088C67.6881 62.0557 67.5675 61.9985 67.4614 61.9194C67.3553 61.8404 67.2657 61.7411 67.1978 61.6273C67.1299 61.5135 67.0849 61.3874 67.0656 61.2562C67.0462 61.1249 67.0527 60.9912 67.0849 60.8625C67.117 60.7338 67.174 60.6127 67.2527 60.5061C67.3314 60.3996 67.4302 60.3096 67.5436 60.2415C67.6599 60.1677 70.4017 58.5391 72.7273 58.5391C73.7102 58.551 74.6695 58.843 75.4936 59.381C76.4824 60.0167 77.295 60.8933 77.8558 61.9292C78.4165 62.965 78.7071 64.1266 78.7005 65.3056V71.4514C78.7005 71.5838 78.6745 71.7148 78.6241 71.8371C78.5736 71.9594 78.4997 72.0705 78.4065 72.1641C78.3133 72.2577 78.2027 72.3319 78.0809 72.3826C77.9591 72.4332 77.8286 72.4593 77.6968 72.4593Z" fill="#1A1A1A"/>
<path d="M80.8358 79.8335C79.9293 79.7983 79.0388 79.5823 78.2161 79.1983C77.3934 78.8142 76.655 78.2697 76.0438 77.5964C75.8346 77.395 75.6759 77.1467 75.5806 76.8718C75.4853 76.597 75.4562 76.3033 75.4956 76.015C75.535 75.7266 75.6418 75.4518 75.8073 75.2128C75.9728 74.9739 76.1922 74.7777 76.4477 74.6403L83.4614 70.6762C83.6759 70.5484 83.9141 70.4658 84.1614 70.4334C84.4088 70.4011 84.6602 70.4197 84.9001 70.4881C85.1401 70.5566 85.3637 70.6734 85.5572 70.8315C85.7507 70.9896 85.9101 71.1856 86.0257 71.4076C87.6597 74.4805 86.7539 77.3383 83.5776 79.0714C82.7432 79.5557 81.7995 79.818 80.8358 79.8335V79.8335ZM77.6044 76.3242C78.7917 77.4489 80.5849 78.4753 82.6351 77.3445C84.6854 76.2136 85.3341 74.5543 84.3182 72.5323L77.6044 76.3242Z" fill="#1A1A1A"/>
<path d="M62.1146 69.6121C61.5768 69.6104 61.0615 69.3947 60.6818 69.0123C60.3021 68.6298 60.0889 68.1117 60.0889 67.5716V55.28C60.1174 54.759 60.3435 54.2688 60.7209 53.9101C61.0982 53.5515 61.5981 53.3516 62.1177 53.3516C62.6373 53.3516 63.1371 53.5515 63.5145 53.9101C63.8918 54.2688 64.118 54.759 64.1465 55.28V67.5716C64.1465 68.1128 63.9324 68.6318 63.5514 69.0144C63.1703 69.3971 62.6535 69.6121 62.1146 69.6121V69.6121Z" fill="#1A1A1A"/>
<path d="M98.517 47.8379L89.2329 42.1346L74.0918 39.75L68.2838 44.8141C67.6623 43.7256 66.7661 42.8208 65.6856 42.1907C64.605 41.5606 63.3782 41.2275 62.1287 41.225C60.8792 41.2225 59.6511 41.5506 58.5681 42.1763C57.485 42.8021 56.5853 43.7033 55.9594 44.7893C55.3335 45.8753 55.0036 47.1077 55.0029 48.3625C55.0022 49.6172 55.3308 50.85 55.9554 51.9367C56.5801 53.0234 57.4789 53.9256 58.5613 54.5526C59.6436 55.1795 60.8714 55.509 62.1209 55.5078C64.2813 56.694 67.7452 57.6466 72.727 56.1224C81.9071 53.3199 83.633 48.8642 83.633 48.8642C83.633 48.8642 90.0591 59.2322 94.4961 58.6053C98.9332 57.9785 98.517 47.8379 98.517 47.8379Z" fill="#1A1A1A"/>
<path d="M85.8056 38.6876C85.7126 38.6875 85.62 38.6751 85.5302 38.6507C85.317 38.5897 85.13 38.4595 84.9983 38.2806C84.8665 38.1016 84.7975 37.8838 84.8019 37.6613C84.857 34.2811 80.8973 30.8148 80.8606 30.778C80.7605 30.6916 80.6784 30.5863 80.6188 30.4681C80.5593 30.3498 80.5235 30.221 80.5136 30.0889C80.5037 29.9568 80.5197 29.824 80.5609 29.6981C80.602 29.5722 80.6675 29.4557 80.7535 29.3552C80.8395 29.2547 80.9443 29.1722 81.0621 29.1125C81.1798 29.0527 81.3081 29.0168 81.4397 29.0068C81.5713 28.9968 81.7035 29.0129 81.8288 29.0543C81.9542 29.0956 82.0702 29.1613 82.1703 29.2477C82.3294 29.3829 85.3038 31.9825 86.4054 35.2583C87.3527 34.186 88.5519 33.3685 89.8938 32.8798C90.02 32.8395 90.1529 32.8245 90.2848 32.8357C90.4168 32.8469 90.5452 32.8841 90.6629 32.9452C90.7805 33.0062 90.885 33.09 90.9704 33.1916C91.0559 33.2932 91.1205 33.4107 91.1607 33.5374C91.2009 33.6641 91.2158 33.7976 91.2046 33.9301C91.1935 34.0626 91.1564 34.1916 91.0956 34.3097C91.0348 34.4279 90.9514 34.5328 90.8502 34.6186C90.749 34.7043 90.632 34.7693 90.5058 34.8096C88.2904 35.5102 86.6808 38.1714 86.6685 38.196C86.5786 38.3452 86.452 38.4687 86.3009 38.5548C86.1498 38.6408 85.9793 38.6866 85.8056 38.6876V38.6876Z" fill="#1A1A1A"/>
<path d="M61.9125 69.2374C61.6376 69.2356 61.3693 69.1522 61.1414 68.9977L57.6958 66.6562C57.5455 66.5545 57.4166 66.4241 57.3165 66.2723C57.2164 66.1206 57.1471 65.9506 57.1124 65.772C57.0777 65.5934 57.0784 65.4096 57.1145 65.2313C57.1505 65.0529 57.2212 64.8835 57.3225 64.7325C57.4237 64.5816 57.5536 64.4522 57.7047 64.3517C57.8558 64.2512 58.0251 64.1815 58.2029 64.1467C58.3808 64.1119 58.5638 64.1126 58.7414 64.1488C58.919 64.185 59.0878 64.2559 59.2381 64.3576L62.6898 66.7053C62.9361 66.8708 63.1226 67.1117 63.2218 67.3921C63.3209 67.6725 63.3273 67.9776 63.24 68.262C63.1527 68.5464 62.9764 68.7949 62.7372 68.9706C62.4981 69.1463 62.2089 69.2399 61.9125 69.2374V69.2374Z" fill="#1A1A1A"/>
<path d="M96.014 69.6121C96.5529 69.6121 97.0697 69.3971 97.4508 69.0144C97.8318 68.6318 98.0459 68.1128 98.0459 67.5716V55.28C98.0174 54.759 97.7912 54.2688 97.4139 53.9101C97.0365 53.5515 96.5367 53.3516 96.0171 53.3516C95.4975 53.3516 94.9977 53.5515 94.6203 53.9101C94.243 54.2688 94.0168 54.759 93.9883 55.28V67.5716C93.9883 68.1117 94.2015 68.6298 94.5812 69.0123C94.961 69.3947 95.4762 69.6104 96.014 69.6121V69.6121Z" fill="#1A1A1A"/>
<path d="M96.1911 69.2366C95.8937 69.2418 95.6026 69.1502 95.3614 68.9754C95.1202 68.8007 94.9418 68.5522 94.8529 68.2672C94.7641 67.9821 94.7695 67.6759 94.8684 67.3942C94.9673 67.1125 95.1544 66.8705 95.4016 66.7045L98.8472 64.3568C99.1508 64.1701 99.5144 64.1082 99.8623 64.1838C100.21 64.2595 100.516 64.467 100.715 64.7631C100.915 65.0592 100.993 65.4211 100.933 65.7735C100.874 66.126 100.681 66.4418 100.396 66.6553L96.95 68.9969C96.7255 69.149 96.4619 69.2323 96.1911 69.2366Z" fill="#1A1A1A"/>
<path d="M79.0494 89.9627C74.4617 90.021 69.9496 88.786 66.0258 86.3981C65.8077 86.2443 65.6585 86.0105 65.6104 85.7473C65.5623 85.484 65.6192 85.2123 65.7688 84.9907C65.8431 84.8813 65.9382 84.7877 66.0485 84.7152C66.1589 84.6427 66.2824 84.5928 66.4119 84.5682C66.5415 84.5437 66.6747 84.545 66.8037 84.5722C66.9328 84.5993 67.0553 84.6518 67.1642 84.7265C70.7526 86.8675 74.8571 87.9792 79.031 87.9407C79.1698 87.9298 79.3094 87.9479 79.4409 87.9938C79.5724 88.0397 79.6931 88.1123 79.7953 88.2073C79.8975 88.3022 79.979 88.4174 80.0348 88.5455C80.0906 88.6736 80.1194 88.8119 80.1194 88.9517C80.1194 89.0915 80.0906 89.2298 80.0348 89.3579C79.979 89.486 79.8975 89.6012 79.7953 89.6961C79.6931 89.7911 79.5724 89.8638 79.4409 89.9096C79.3094 89.9555 79.1698 89.9736 79.031 89.9627H79.0494Z" fill="#1A1A1A"/>
<path d="M144.363 111.448C144.224 111.446 144.087 111.416 143.96 111.358C143.833 111.301 143.719 111.218 143.625 111.115C143.531 111.012 143.459 110.891 143.413 110.759C143.367 110.627 143.349 110.488 143.359 110.348L146.003 79.6868C145.931 78.3223 146.353 76.9779 147.19 75.9009C148.414 74.3461 150.385 73.4057 153.09 73.0985C159.1 72.4163 165.391 70.4496 166.444 61.0097C167.123 54.9069 168.415 51.5144 170.514 50.3282C171.077 50.0206 171.709 49.8594 172.35 49.8594C172.991 49.8594 173.623 50.0206 174.186 50.3282C178.77 52.4547 173.88 70.4496 173.831 70.6094C173.795 70.7369 173.734 70.856 173.652 70.9599C173.57 71.0639 173.468 71.1505 173.353 71.215C173.238 71.2795 173.111 71.3206 172.98 71.3358C172.848 71.351 172.716 71.3402 172.589 71.3039C172.462 71.2676 172.343 71.2065 172.24 71.1241C172.136 71.0418 172.05 70.9398 171.986 70.8239C171.856 70.5899 171.824 70.3138 171.897 70.0563C174.302 61.5997 174.749 52.7927 173.341 52.1413C172.35 51.6803 171.818 51.8647 171.505 52.0491C170.691 52.5039 169.216 54.3046 168.445 61.194C167.221 72.1028 159.718 74.3399 153.316 75.0651C151.168 75.3109 149.644 75.9931 148.775 77.0994C148.234 77.7985 147.97 78.6745 148.035 79.5577C148.041 79.6293 148.041 79.7012 148.035 79.7728L145.385 110.502C145.369 110.762 145.254 111.005 145.063 111.182C144.873 111.358 144.622 111.454 144.363 111.448Z" fill="#1A1A1A"/>
<path d="M179.859 72.4571C179.704 72.4569 179.552 72.4208 179.413 72.3518C179.274 72.2827 179.153 72.1825 179.059 72.0589C178.965 71.9354 178.9 71.7917 178.87 71.6391C178.84 71.4865 178.846 71.329 178.886 71.1788C179.7 68.235 181.114 59.2498 179.816 54.4745C179.492 53.2454 178.99 52.5447 178.329 52.2989C177.387 51.9547 176.138 52.5878 175.741 52.8643C175.521 52.9935 175.261 53.0349 175.013 52.9802C174.765 52.9254 174.546 52.7786 174.401 52.5691C174.256 52.3596 174.194 52.1027 174.229 51.8498C174.264 51.597 174.393 51.3667 174.59 51.2049C174.688 51.1373 176.891 49.6255 179.009 50.3998C180.324 50.8792 181.249 52.0715 181.757 53.9398C183.238 59.3973 181.573 69.0155 180.826 71.7135C180.769 71.9268 180.643 72.1151 180.468 72.2495C180.293 72.3838 180.079 72.4568 179.859 72.4571V72.4571Z" fill="#1A1A1A"/>
<path d="M173.776 115.044C173.629 115.044 144.289 110.674 144.289 110.674C144.153 110.661 144.02 110.621 143.899 110.555C143.779 110.489 143.673 110.399 143.588 110.291C143.503 110.183 143.441 110.058 143.406 109.925C143.371 109.792 143.363 109.653 143.383 109.516C143.403 109.38 143.45 109.249 143.522 109.132C143.594 109.015 143.689 108.913 143.802 108.834C143.914 108.755 144.041 108.7 144.175 108.671C144.31 108.643 144.448 108.643 144.583 108.67L172.827 112.874L173.874 90.8905C173.464 86.5086 176.212 84.5481 178.868 82.6552C181.377 80.8667 183.966 79.0168 184.731 74.9299C186.72 64.3407 186.903 55.4845 185.177 53.4195C185.101 53.3058 184.998 53.2127 184.878 53.1484C184.757 53.0841 184.622 53.0506 184.486 53.0508C184.194 53.0257 183.9 53.0644 183.624 53.1641C183.349 53.2638 183.098 53.4222 182.889 53.6285C182.444 54.2631 182.246 55.0391 182.332 55.8103C182.343 56.0667 182.258 56.3181 182.092 56.5137C181.927 56.7094 181.693 56.8346 181.439 56.8642C181.185 56.8939 180.93 56.8257 180.724 56.6734C180.518 56.5212 180.377 56.2961 180.33 56.0438C180.175 54.7036 180.553 53.3561 181.383 52.2949C181.776 51.8683 182.258 51.5338 182.794 51.315C183.33 51.0962 183.908 50.9985 184.486 51.0288C184.918 51.0297 185.345 51.1298 185.733 51.3215C186.122 51.5133 186.461 51.7915 186.726 52.1351C190.006 56.1053 187.546 70.8921 186.726 75.3355C185.802 80.2521 182.613 82.5015 180.049 84.333C177.484 86.1644 175.569 87.5288 175.899 90.7922C175.899 90.9458 174.792 114.116 174.792 114.116C174.779 114.374 174.668 114.618 174.481 114.797C174.294 114.975 174.046 115.075 173.788 115.074L173.776 115.044Z" fill="#1A1A1A"/>
<path d="M185.104 78.3025C184.93 78.3034 184.758 78.2567 184.609 78.1673C184.493 78.1021 184.392 78.0147 184.311 77.9102C184.229 77.8057 184.169 77.686 184.134 77.5581C184.099 77.4302 184.089 77.2965 184.105 77.1648C184.122 77.0331 184.164 76.906 184.229 76.7906C186.916 72.0153 192.185 62.3049 192.901 59.693C193.048 59.2811 193.033 58.8288 192.861 58.4272C192.688 58.0257 192.37 57.7049 191.971 57.5297C190.955 57.0626 189.394 57.4006 188.207 59.2013C188.059 59.4246 187.829 59.5799 187.568 59.6329C187.306 59.6859 187.034 59.6323 186.812 59.484C186.589 59.3357 186.435 59.1047 186.382 58.8419C186.329 58.5792 186.383 58.3061 186.53 58.0828C188.366 55.2926 191.01 54.8747 192.803 55.6921C193.64 56.0627 194.312 56.7304 194.689 57.5674C195.066 58.4043 195.123 59.3516 194.847 60.2277C193.893 63.7308 186.279 77.2147 185.979 77.7862C185.891 77.9418 185.764 78.0714 185.611 78.162C185.457 78.2526 185.282 78.301 185.104 78.3025Z" fill="#1A1A1A"/>
<path d="M12.0709 153.982C11.8832 153.983 11.6989 153.932 11.5384 153.835C1.43416 147.806 -9.78396 153.398 -9.88188 153.46C-10.1188 153.541 -10.3769 153.534 -10.6093 153.441C-10.8417 153.347 -11.0331 153.173 -11.1486 152.95C-11.2641 152.727 -11.2961 152.47 -11.2389 152.225C-11.1816 151.98 -11.0389 151.764 -10.8366 151.616C-10.3348 151.358 1.50148 145.427 12.6217 152.058C12.8161 152.178 12.9665 152.357 13.0502 152.57C13.1339 152.782 13.1462 153.017 13.0853 153.237C13.0244 153.457 12.8936 153.652 12.7127 153.791C12.5319 153.929 12.3108 154.005 12.0831 154.007L12.0709 153.982Z" fill="#E6E6E6"/>
<path d="M142.025 186.296H139.43C141.341 185.688 143.01 184.485 144.195 182.863C145.381 181.24 146.023 179.281 146.028 177.268V115.779C146.021 113.269 145.026 110.864 143.258 109.09C141.491 107.315 139.096 106.315 136.597 106.309H21.5391C19.0339 106.307 16.6304 107.303 14.8555 109.078C13.0807 110.854 12.0794 113.264 12.0713 115.779V177.268C12.0771 179.281 12.7191 181.239 13.9048 182.862C15.0905 184.484 16.7586 185.687 18.6687 186.296H16.7226C15.575 186.296 14.4744 186.754 13.663 187.569C12.8515 188.384 12.3957 189.489 12.3957 190.641C12.3957 191.794 12.8515 192.899 13.663 193.714C14.4744 194.529 15.575 194.986 16.7226 194.986H142.025C143.173 194.986 144.273 194.529 145.085 193.714C145.896 192.899 146.352 191.794 146.352 190.641C146.352 189.489 145.896 188.384 145.085 187.569C144.273 186.754 143.173 186.296 142.025 186.296V186.296Z" fill="#B8C6C8"/>
<path d="M142.025 196.003H16.7224C15.4578 195.992 14.2381 195.531 13.2808 194.701C12.3234 193.871 11.6906 192.727 11.4951 191.472C11.2996 190.218 11.5541 188.934 12.2133 187.85C12.8725 186.767 13.8936 185.953 15.0944 185.555C13.8385 184.577 12.8226 183.322 12.1245 181.888C11.4264 180.454 11.0648 178.879 11.0674 177.283V115.782C11.0706 113.002 12.1717 110.337 14.129 108.371C16.0864 106.406 18.7402 105.3 21.5083 105.297H136.596C139.365 105.3 142.018 106.406 143.976 108.371C145.933 110.337 147.034 113.002 147.037 115.782V177.27C147.04 178.832 146.693 180.374 146.024 181.783C145.354 183.192 144.379 184.433 143.169 185.414C144.45 185.701 145.581 186.452 146.345 187.524C147.109 188.595 147.453 189.912 147.311 191.222C147.169 192.532 146.552 193.744 145.577 194.626C144.602 195.508 143.337 195.998 142.025 196.003V196.003ZM16.7224 187.313C16.2744 187.293 15.8271 187.365 15.4075 187.524C14.9879 187.683 14.6047 187.925 14.2809 188.237C13.9571 188.548 13.6994 188.923 13.5234 189.337C13.3473 189.751 13.2566 190.196 13.2566 190.647C13.2566 191.097 13.3473 191.543 13.5234 191.957C13.6994 192.371 13.9571 192.745 14.2809 193.057C14.6047 193.368 14.9879 193.611 15.4075 193.769C15.8271 193.928 16.2744 194 16.7224 193.981H142.025C142.881 193.944 143.69 193.577 144.282 192.955C144.875 192.334 145.206 191.507 145.206 190.647C145.206 189.787 144.875 188.959 144.282 188.338C143.69 187.717 142.881 187.35 142.025 187.313H139.43C139.188 187.315 138.954 187.23 138.77 187.073C138.586 186.915 138.464 186.697 138.428 186.457C138.391 186.217 138.442 185.972 138.571 185.767C138.7 185.562 138.899 185.41 139.13 185.34C140.832 184.787 142.318 183.71 143.376 182.262C144.434 180.813 145.01 179.067 145.024 177.27V115.782C145.021 113.538 144.132 111.387 142.552 109.801C140.972 108.215 138.831 107.322 136.596 107.319H21.5389C20.4298 107.316 19.331 107.532 18.3054 107.956C17.2798 108.38 16.3475 109.002 15.5618 109.788C14.7762 110.575 14.1527 111.509 13.727 112.537C13.3012 113.565 13.0817 114.668 13.0809 115.782V177.27C13.0944 179.067 13.6711 180.813 14.7291 182.262C15.787 183.71 17.2725 184.787 18.9745 185.34C19.2065 185.41 19.4053 185.562 19.5343 185.768C19.6634 185.974 19.7139 186.22 19.6766 186.46C19.6393 186.7 19.5167 186.919 19.3315 187.076C19.1462 187.233 18.9107 187.317 18.6685 187.313H16.7224Z" fill="#1A1A1A"/>
<path d="M79.3731 155.316C84.2099 155.316 88.1309 151.378 88.1309 146.521C88.1309 141.664 84.2099 137.727 79.3731 137.727C74.5362 137.727 70.6152 141.664 70.6152 146.521C70.6152 151.378 74.5362 155.316 79.3731 155.316Z" fill="#B8C6C8"/>
<path d="M79.3735 156.331C77.4355 156.337 75.5393 155.765 73.925 154.688C72.3107 153.612 71.0508 152.078 70.305 150.282C69.5591 148.485 69.3609 146.507 69.7352 144.598C70.1096 142.688 71.0398 140.933 72.408 139.555C73.7762 138.177 75.521 137.237 77.4213 136.855C79.3216 136.473 81.2921 136.666 83.0831 137.41C84.8742 138.153 86.4053 139.413 87.4826 141.031C88.56 142.649 89.1351 144.551 89.1351 146.497C89.1351 149.1 88.1076 151.596 86.2778 153.44C84.4481 155.283 81.9653 156.322 79.3735 156.331ZM79.3735 138.741C77.8396 138.741 76.3402 139.198 75.0649 140.054C73.7896 140.91 72.7958 142.126 72.209 143.55C71.6223 144.973 71.4691 146.539 71.7688 148.049C72.0685 149.56 72.8076 150.948 73.8927 152.036C74.9777 153.125 76.36 153.866 77.8645 154.166C79.3691 154.466 80.9284 154.311 82.3452 153.72C83.7619 153.13 84.9725 152.131 85.8238 150.85C86.6751 149.568 87.1289 148.062 87.1277 146.522C87.1244 144.458 86.3062 142.48 84.8526 141.022C83.3989 139.563 81.4285 138.743 79.3735 138.741Z" fill="#999999"/>
<path d="M139.43 187.31H18.6686C18.4151 187.29 18.1784 187.175 18.0058 186.988C17.8332 186.8 17.7373 186.555 17.7373 186.299C17.7373 186.044 17.8332 185.798 18.0058 185.611C18.1784 185.423 18.4151 185.308 18.6686 185.288H139.43C139.569 185.277 139.708 185.295 139.84 185.341C139.972 185.387 140.092 185.46 140.194 185.555C140.297 185.65 140.378 185.765 140.434 185.893C140.49 186.021 140.518 186.159 140.518 186.299C140.518 186.439 140.49 186.577 140.434 186.705C140.378 186.834 140.297 186.949 140.194 187.044C140.092 187.139 139.972 187.211 139.84 187.257C139.708 187.303 139.569 187.321 139.43 187.31V187.31Z" fill="#1A1A1A"/>
<path fill-rule="evenodd" clip-rule="evenodd" d="M130.028 63.9842C137.56 65.7296 144.85 62.0352 146.311 55.7326C147.771 49.43 142.849 42.9058 135.316 41.1604C127.784 39.4149 120.494 43.1093 119.033 49.4119C118.083 53.512 119.834 57.706 123.248 60.617L122.789 61.5443C121.963 63.2142 123.668 65.0075 125.377 64.2664L127.607 63.2998C127.636 63.2874 127.664 63.2744 127.691 63.261C128.437 63.5532 129.217 63.7964 130.028 63.9842Z" fill="#BCDFFF"/>
</g>
<g filter="url(#filter0_d)">
<path d="M228.72 89.296H224.976V84.256H228.72V89.296ZM224.976 109.456V103.696H228.72V108.832L224.976 109.456ZM224.976 93.952H228.72V99.04H224.976V93.952ZM235.824 84.256V79.12H218.16V84.256H220.32V110.224C219.264 110.368 218.256 110.512 217.344 110.656L218.256 115.888C221.376 115.36 225.072 114.64 228.72 113.872V122.176H233.472V84.256H235.824ZM242.4 101.008V109.456H239.76V102.4H235.68V115.072H239.76V113.296H241.92C241.248 115.408 239.76 117.232 236.448 118.672C237.408 119.488 238.752 121.312 239.232 122.368C246 119.536 247.008 114.832 247.008 109.456V101.008H242.4ZM262.848 100.096C262.656 97.984 261.504 94.768 260.16 92.272L256.752 93.376C257.088 94.096 257.424 94.864 257.712 95.632L254.688 95.872C257.04 92.608 259.584 88.48 261.696 84.928L257.328 83.344C256.752 84.736 256.032 86.272 255.216 87.904C254.832 87.424 254.352 86.944 253.872 86.464C255.264 84.304 256.896 81.424 258.384 78.784L253.68 77.392C253.104 79.312 252.144 81.856 251.136 84.016C250.8 83.728 250.416 83.44 250.08 83.2L247.824 86.656C249.744 88.144 251.76 90.208 253.008 91.936C252.144 93.472 251.232 94.912 250.368 96.16L248.4 96.304C248.016 94.96 247.44 93.568 246.864 92.32L243.504 93.328C243.84 94.096 244.176 94.912 244.464 95.728L241.344 95.968C243.696 92.704 246.288 88.528 248.352 84.976L244.176 83.536C243.6 84.88 242.88 86.368 242.064 87.952C241.68 87.52 241.248 87.04 240.816 86.56C242.16 84.4 243.744 81.376 245.28 78.736L240.672 77.392C240.144 79.312 239.136 81.904 238.176 84.112L237.36 83.44L234.96 86.752C236.736 88.24 238.656 90.256 239.904 91.936C238.992 93.472 238.08 94.96 237.168 96.256C236.16 96.304 235.2 96.352 234.336 96.4L234.912 100.384C238.032 100.096 241.728 99.712 245.472 99.328C245.52 99.76 245.568 100.192 245.616 100.576L248.784 99.472L248.928 100.288C251.856 100 255.312 99.616 258.816 99.232C259.008 100 259.152 100.72 259.2 101.344L262.848 100.096ZM256.656 109.456H253.872V100.96H249.264V122.176H253.872V113.296H256.656V114.976H260.976V102.4H256.656V109.456ZM267.408 105.424C267.024 109.456 266.256 113.728 264.864 116.56C266.112 116.992 268.224 118 269.232 118.624C270.624 115.552 271.632 110.752 272.112 106.24L267.408 105.424ZM277.824 106.288C278.928 109.12 280.176 112.816 280.608 115.216L284.832 113.68C284.304 111.28 283.056 107.776 281.856 105.04L277.824 106.288ZM289.536 103.792C292.176 102.448 294.72 100.768 297.072 98.8C299.616 100.768 302.352 102.448 305.184 103.792H289.536ZM291.504 115.312V108.688H301.968V115.312H291.504ZM292.704 86.464H301.008C299.856 88.432 298.464 90.304 296.88 91.984C295.104 90.4 293.568 88.72 292.368 86.992L292.704 86.464ZM304.8 81.376L303.936 81.616H295.68C296.304 80.512 296.832 79.36 297.312 78.256L291.744 77.392C290.016 81.856 286.56 86.992 281.28 90.88C282.48 91.6 284.304 93.424 285.12 94.576C286.56 93.424 287.904 92.176 289.104 90.88C290.304 92.464 291.648 93.904 293.04 95.344C290.352 97.408 287.28 99.088 284.064 100.384C283.248 97.984 281.904 95.2 280.608 92.848L276.816 94.432C277.392 95.488 277.968 96.688 278.496 97.888L273.888 98.08C276.912 94.192 280.224 89.344 282.864 85.168L278.208 83.008C277.104 85.36 275.568 88.096 273.936 90.784C273.456 90.208 272.928 89.536 272.304 88.864C274.032 86.176 275.952 82.48 277.68 79.216L272.736 77.392C271.92 79.936 270.576 83.104 269.232 85.744C268.848 85.408 268.464 85.072 268.128 84.784L265.392 88.672C267.36 90.592 269.664 93.136 271.056 95.2C270.288 96.304 269.52 97.36 268.8 98.272L265.344 98.416L265.824 103.36L272.784 102.928V122.224H277.728V102.592L280.176 102.4C280.416 103.264 280.608 104.08 280.752 104.8L283.92 103.36C284.544 104.176 285.12 105.04 285.408 105.664L286.224 105.328V122.176H291.504V120.208H301.968V121.984H307.536V104.8L307.632 104.848C308.448 103.456 310.032 101.296 311.28 100.288C307.68 99.088 304.128 97.312 300.96 95.152C304.032 91.84 306.576 87.856 308.352 83.296L304.8 81.376ZM357.168 86.32C355.776 84.064 352.608 80.896 350.064 78.688L345.744 81.616C348.336 83.92 351.312 87.328 352.56 89.536L357.168 86.32ZM351.024 97.936C349.776 100.24 348.192 102.4 346.464 104.464C345.936 102.016 345.456 99.232 345.072 96.352H357.552V90.928H344.496C344.112 86.704 343.92 82.24 344.016 77.776H338.016C338.064 82.144 338.208 86.608 338.592 90.928H329.376V84.448C332.16 83.872 334.8 83.248 337.2 82.528L333.36 77.68C328.464 79.264 321.024 80.8 314.304 81.712C314.928 83.008 315.696 85.12 315.936 86.512C318.384 86.224 321.024 85.888 323.616 85.456V90.928H314.544V96.352H323.616V102.784C319.824 103.456 316.368 103.984 313.632 104.416L315.024 110.176C317.568 109.696 320.544 109.072 323.616 108.448V115.408C323.616 116.176 323.328 116.416 322.464 116.416C321.6 116.464 318.816 116.512 316.128 116.368C316.944 117.952 317.904 120.544 318.144 122.128C322.032 122.176 324.912 121.936 326.784 121.024C328.704 120.112 329.376 118.576 329.376 115.456V107.248L337.2 105.664L336.768 100.48C334.32 100.912 331.824 101.392 329.376 101.824V96.352H339.12C339.696 101.056 340.512 105.424 341.568 109.216C338.256 111.952 334.56 114.304 330.864 115.984C332.256 117.28 333.84 119.248 334.656 120.592C337.728 119.008 340.752 117.04 343.536 114.736C345.6 119.44 348.288 122.32 351.792 122.32C356.16 122.32 357.936 120.208 358.848 111.808C357.312 111.184 355.392 109.888 354.144 108.544C353.904 114.208 353.328 116.512 352.32 116.512C350.88 116.512 349.392 114.304 348.096 110.608C351.216 107.488 353.904 103.984 356.064 100.096L351.024 97.936ZM384.336 84.208V86.944H380.4V84.208H384.336ZM380.4 93.856V91.024H384.336V93.856H380.4ZM388.656 79.888H375.168L375.456 78.976L370.176 77.392C368.064 84.448 364.512 91.456 360.672 95.92C361.584 97.408 362.976 100.72 363.408 102.064C364.416 100.912 365.424 99.568 366.384 98.128V122.128H371.808V88.288C373.056 85.552 374.16 82.72 375.12 79.984V122.032H380.4V98.176H388.656V79.888ZM395.328 93.856V91.024H399.6V93.856H395.328ZM399.6 84.208V86.944H395.328V84.208H399.6ZM405.072 79.888H390.816V98.176H399.6V115.456C399.6 116.368 399.264 116.656 398.352 116.656C397.392 116.704 394.08 116.752 391.152 116.56C391.872 118 392.736 120.496 392.976 122.08C397.488 122.08 400.512 121.936 402.48 121.024C404.4 120.208 405.072 118.672 405.072 115.504V79.888Z" fill="white"/>
</g>
</g>
<defs>
<filter id="filter0_d" x="207.344" y="67.3906" width="207.728" height="64.976" filterUnits="userSpaceOnUse" color-interpolation-filters="sRGB">
<feFlood flood-opacity="0" result="BackgroundImageFix"/>
<feColorMatrix in="SourceAlpha" type="matrix" values="0 0 0 0 0 0 0 0 0 0 0 0 0 0 0 0 0 0 127 0" result="hardAlpha"/>
<feOffset/>
<feGaussianBlur stdDeviation="5"/>
<feComposite in2="hardAlpha" operator="out"/>
<feColorMatrix type="matrix" values="0 0 0 0 0.036 0 0 0 0 0 0 0 0 0 0.45 0 0 0 0.5 0"/>
<feBlend mode="normal" in2="BackgroundImageFix" result="effect1_dropShadow"/>
<feBlend mode="normal" in="SourceGraphic" in2="effect1_dropShadow" result="shape"/>
</filter>
<clipPath id="clip0">
<path d="M0 8C0 3.58172 3.58172 0 8 0H424C428.418 0 432 3.58172 432 8V188C432 192.418 428.418 196 424 196H8C3.58172 196 0 192.418 0 188V8Z" fill="white"/>
</clipPath>
<clipPath id="clip1">
<rect width="222" height="167" fill="white" transform="translate(-27 29)"/>
</clipPath>
</defs>
</svg>
