<svg width="432" height="196" viewBox="0 0 432 196" fill="none" xmlns="http://www.w3.org/2000/svg">
<g clip-path="url(#clip0)">
<path d="M0 8C0 3.58172 3.58172 0 8 0H424C428.418 0 432 3.58172 432 8V188C432 192.418 428.418 196 424 196H8C3.58172 196 0 192.418 0 188V8Z" fill="#EB741E"/>
<path d="M277 276L1 0L-114 -16V276H277Z" fill="#CE5700"/>
<g clip-path="url(#clip1)">
<path d="M141.657 99.7671L160.372 103.455V102.072L162.6 95.6186V92.853L169.285 90.0874L177.305 86.3999L183.544 82.2514C184.584 81.6369 186.574 80.039 186.218 78.564C185.861 77.089 182.801 77.0275 181.316 77.1811C181.91 76.5666 182.742 75.0608 181.316 73.9546C179.89 72.8483 178.642 74.4155 178.197 75.3374V72.5718H175.968L169.285 77.1811C169.879 76.1056 170.889 73.678 170.176 72.5718C169.463 71.4655 167.502 72.1108 166.611 72.5718L160.372 82.2514H147.895L144.776 85.478L141.657 99.7671Z" fill="white"/>
<path d="M-23.7384 89.8428C-23.7384 89.8428 -3.72707 82.811 8.43331 100.292C14.4867 108.99 21.2127 114.712 27.028 116.845C38.1289 120.914 60.1164 123.957 74.8183 106.396C79.8718 100.36 80.2408 94.4897 80.2408 94.4897C91.925 96.7148 100.776 88.6135 98.7462 70.1181C97.1034 55.2124 82.1455 45.6912 64.1282 50.295C55.5451 52.4955 50.1286 60.855 43.1942 63.8177C36.7063 66.6083 28.6946 64.4324 20.9389 55.2431C8.24282 40.2145 -14.4946 40.9582 -23.7384 47.2217V89.8428Z" fill="#1A1A1A"/>
<path d="M41.1886 66.1517C42.5562 66.1619 43.912 65.8903 45.1766 65.3526C45.3363 65.2919 45.4826 65.1985 45.6065 65.0779C45.7304 64.9574 45.8294 64.8122 45.8975 64.6511C45.9656 64.49 46.0015 64.3163 46.0029 64.1405C46.0043 63.9647 45.9713 63.7904 45.9058 63.6282C45.8403 63.4659 45.7437 63.319 45.6217 63.1963C45.4998 63.0736 45.3551 62.9777 45.1963 62.9143C45.0376 62.8508 44.868 62.8212 44.6979 62.8272C44.5278 62.8333 44.3606 62.8748 44.2064 62.9493C38.8137 65.2727 30.052 60.4906 21.8915 50.8157C8.91568 35.3998 -14.2087 35.5903 -24.4286 42.4931C-24.6867 42.6914 -24.8617 42.9839 -24.9179 43.311C-24.9741 43.6381 -24.9071 43.975 -24.7308 44.2528C-24.5545 44.5307 -24.2821 44.7285 -23.9692 44.8058C-23.6564 44.8832 -23.3268 44.8342 -23.0477 44.669C-13.7801 38.424 8.07641 38.3748 19.9927 52.5245C25.9092 59.5501 34.1114 66.1517 41.1886 66.1517Z" fill="#1A1A1A"/>
<path d="M10.6237 103.155C10.8555 103.153 11.0826 103.086 11.28 102.961C11.4774 102.835 11.6375 102.656 11.7426 102.442C11.8478 102.229 11.894 101.99 11.8761 101.751C11.8583 101.512 11.7771 101.283 11.6415 101.089C-0.983142 82.9442 -24.0718 93.8915 -24.292 94.0082C-24.4522 94.0738 -24.5976 94.1726 -24.7194 94.2984C-24.8412 94.4242 -24.9367 94.5745 -25.0002 94.7399C-25.0636 94.9053 -25.0935 95.0824 -25.0882 95.2602C-25.0828 95.438 -25.0422 95.6128 -24.9689 95.7739C-24.8957 95.9349 -24.7912 96.0787 -24.6621 96.1964C-24.5329 96.3142 -24.3818 96.4034 -24.218 96.4585C-24.0542 96.5137 -23.8812 96.5336 -23.7097 96.5171C-23.5382 96.5005 -23.3717 96.4479 -23.2206 96.3624C-22.3516 95.9383 -1.79264 86.2327 9.5999 102.607C9.71551 102.777 9.86889 102.915 10.0471 103.01C10.2253 103.105 10.423 103.155 10.6237 103.155Z" fill="#1A1A1A"/>
<path d="M103.521 108.544C101.663 108.052 99.6635 107.658 97.3005 107.204C94.0881 106.696 90.8421 106.449 87.5924 106.466L86.9972 95.5925C88.6606 95.26 90.1877 94.4158 91.378 93.1707C95.2886 89.7777 95.5446 79.9061 93.4494 67.8709C93.0176 65.3517 91.7762 63.0564 89.9257 61.3554C89.7833 61.2092 89.6125 61.0959 89.4245 61.023C89.2365 60.9501 89.0357 60.9194 88.8353 60.9327C88.635 60.9461 88.4396 61.0033 88.2623 61.1005C88.085 61.1978 87.9297 61.3329 87.8067 61.4968C84.9139 65.363 74.9499 78.7936 68.2656 75.4313C66.1883 74.5216 63.8967 74.9273 62.6705 76.5807C61.1765 78.6092 61.8551 81.744 64.1943 83.588C65.2709 84.4568 66.6081 84.9091 67.9739 84.8665L67.343 107.56C66.5394 107.658 65.7478 107.757 64.9621 107.867C62.3788 108.224 57.0576 107.597 51.6172 109.527C57.0516 112.693 66.5752 119.245 78.4796 118.372C87.6743 117.763 96.4916 114.37 103.83 108.617C103.725 108.599 103.622 108.575 103.521 108.544V108.544Z" fill="white"/>
<path d="M172.274 86.6998C172.502 86.6999 172.727 86.6359 172.923 86.5146C173.119 86.3934 173.279 86.2194 173.387 86.0114C173.696 85.3967 177.905 78.0207 179.5 75.1748C179.648 74.8778 179.681 74.5331 179.59 74.2122C179.5 73.8912 179.293 73.6184 179.013 73.4503C178.734 73.2821 178.402 73.2315 178.087 73.3087C177.772 73.386 177.498 73.5854 177.321 73.8655C177.089 74.2773 171.565 84.0198 171.167 84.782C171.086 84.9331 171.036 85.0992 171.018 85.2706C171 85.442 171.016 85.6154 171.063 85.7806C171.111 85.9458 171.19 86.0996 171.296 86.2332C171.401 86.3667 171.531 86.4772 171.679 86.5584C171.863 86.6545 172.067 86.703 172.274 86.6998V86.6998Z" fill="#1A1A1A"/>
<path d="M159.542 122.521C159.864 122.522 160.174 122.394 160.408 122.166C160.641 121.937 160.781 121.624 160.798 121.292C160.798 121.107 161.905 102.471 162.435 96.3178C162.566 94.8488 163.679 93.5149 165.351 92.8327C167.024 92.1504 168.952 91.3943 170.881 90.6567C176.309 88.5546 177.654 87.9952 178.19 87.5834C184.083 83.4159 187.309 80.9204 187.761 80.1398C188.214 79.3591 188.136 78.1298 186.607 76.9189C185.895 76.353 185.059 75.9791 184.172 75.8309C184.205 75.3288 184.103 74.8271 183.879 74.3806C183.654 73.934 183.315 73.5597 182.898 73.2985C182.414 72.98 181.864 72.785 181.293 72.7294C180.722 72.6738 180.146 72.7593 179.613 72.9789C179.436 72.5879 179.174 72.2442 178.848 71.9745C178.522 71.7048 178.14 71.5164 177.732 71.4238C175.619 70.7784 173.631 71.6327 171.821 73.9623C171.932 73.1641 171.74 72.3525 171.284 71.698C170.827 71.0435 170.143 70.5971 169.375 70.4526C166.833 70.0469 165.262 71.1902 163.173 74.8782C161.75 77.4106 160.863 79.2731 160.423 80.2565C157.798 80.361 149.459 80.7913 146.203 81.9592C144.483 82.5738 143.227 84.6699 142.316 88.3763C142.078 89.3598 141.602 92.1627 140.995 95.7093C139.852 102.397 138.132 112.502 137.048 115.741C136.993 115.91 136.971 116.088 136.985 116.266C136.998 116.443 137.046 116.616 137.126 116.774C137.206 116.931 137.316 117.07 137.45 117.181C137.584 117.292 137.739 117.373 137.906 117.419C144.614 119.349 150.227 120.812 155.56 122.023C156.848 122.253 158.148 122.413 159.453 122.503L159.542 122.521ZM176.625 85.5181C176.029 85.8869 172.684 87.1777 170 88.2227C168.077 88.9664 166.077 89.7409 164.423 90.417C161.857 91.4681 160.137 93.6379 159.923 96.0904C159.47 101.315 158.625 115.409 158.363 119.81C157.548 119.731 156.613 119.62 156.101 119.503C151.149 118.372 145.941 117.044 139.822 115.287C140.935 111.088 142.388 102.575 143.477 96.1765C144.048 92.8204 144.548 89.9191 144.763 89.0156C145.691 85.1739 146.727 84.5285 147.024 84.424C149.905 83.4098 158.292 82.9365 161.292 82.8689C161.535 82.8575 161.769 82.7737 161.967 82.6275C162.164 82.4813 162.316 82.279 162.405 82.0452C163.28 80.0423 164.262 78.0908 165.345 76.1997C167.28 72.7514 168.03 72.8744 168.982 73.0219C169.109 73.0758 169.214 73.1736 169.28 73.2985C169.317 73.4626 169.322 73.6329 169.294 73.7989C169.265 73.9649 169.203 74.1231 169.113 74.2635C167.813 77.0609 166.672 79.9342 165.696 82.8689C165.591 83.1671 165.596 83.4949 165.709 83.7901C165.822 84.0852 166.036 84.3273 166.31 84.4705C166.584 84.6137 166.9 84.648 167.197 84.5669C167.494 84.4858 167.752 84.295 167.923 84.0306C167.958 83.9814 171.059 79.3407 173.577 75.8678C175.363 73.4091 176.553 73.7841 177.018 73.9193L177.25 74.0115C177.098 74.3869 176.875 74.7275 176.595 75.0134C176.358 75.258 176.225 75.5896 176.225 75.9354C176.225 76.2812 176.358 76.6129 176.595 76.8574C176.832 77.102 177.153 77.2393 177.488 77.2393C177.823 77.2393 178.144 77.102 178.381 76.8574C179.071 76.1506 180.684 74.8782 181.506 75.4929C181.642 75.5974 181.75 75.9354 181.327 77.1648C181.232 77.4456 181.232 77.7517 181.328 78.0322C181.425 78.3127 181.611 78.5506 181.857 78.7065C182.102 78.8623 182.392 78.9267 182.678 78.8889C182.964 78.8511 183.229 78.7133 183.428 78.4986C183.517 78.4002 183.744 78.4187 183.875 78.4371C184.382 78.5463 184.852 78.7923 185.238 79.1501C183.934 80.2504 180.154 83.0287 176.69 85.4444L176.625 85.5181Z" fill="#1A1A1A"/>
<path d="M177.256 87.4824C177.473 87.4839 177.686 87.4283 177.876 87.3207C178.065 87.2131 178.225 87.0572 178.34 86.8678L184.072 77.0331C184.16 76.8865 184.22 76.7231 184.247 76.5525C184.274 76.3819 184.268 76.2075 184.229 76.0393C184.19 75.8712 184.119 75.7127 184.02 75.5731C183.922 75.4336 183.797 75.3157 183.654 75.2264C183.51 75.1371 183.351 75.0781 183.186 75.053C183.02 75.0278 182.851 75.0369 182.689 75.0798C182.527 75.1226 182.374 75.1984 182.241 75.3026C182.107 75.4069 181.995 75.5375 181.911 75.6869L176.179 85.5216C176.094 85.6677 176.037 85.8297 176.012 85.9984C175.988 86.1671 175.995 86.3392 176.035 86.5047C176.075 86.6703 176.146 86.8262 176.244 86.9634C176.342 87.1005 176.466 87.2164 176.608 87.3042C176.804 87.4242 177.028 87.4859 177.256 87.4824Z" fill="#1A1A1A"/>
<path d="M139.953 97.0391C135.62 112.713 133.18 123.138 133.18 123.138C118.811 109.935 115.323 109.191 105.079 107.206C105.079 107.206 99.621 117.139 77.5978 117.803C57.8901 118.417 52.5985 109.929 52.5985 109.929C44.3547 112.387 31.6348 115.577 25.6588 128.43C18.2959 144.289 13.8675 163.048 11.3735 177.173C9.49259 187.752 7.01647 212.4 7.01647 212.4C7.01647 212.4 30.8849 212.781 37.8847 206.923L40.9381 193.511L47.2356 166.036C47.8606 170.535 50.7355 193.21 50.7355 193.21C52.0093 201.563 53.4795 207.649 53.4795 207.649C77.1812 220.587 126.626 208.81 128.299 208.927L115.025 167.744L116.811 155.826C126.335 162.876 141.001 171.807 149.846 165.581C155.858 161.303 158.607 155.365 167.619 100.696L139.953 97.0391Z" fill="#F34D4D"/>
<path d="M84.9256 215.024C96.3459 215.024 109.838 213.59 125.401 210.722C126.752 210.47 128.032 210.236 128.287 210.224C128.488 210.238 128.689 210.198 128.871 210.11C129.053 210.022 129.211 209.888 129.329 209.72C129.454 209.545 129.534 209.341 129.562 209.126C129.59 208.912 129.565 208.693 129.49 208.49L116.312 167.578L117.728 158.045C127.68 165.113 140.865 171.801 150.406 166.687C161.215 160.934 168.12 106.972 168.87 100.837C168.909 100.525 168.836 100.208 168.665 99.9466C168.494 99.6852 168.237 99.4971 167.941 99.4175C152.561 95.1886 140.406 95.7295 139.9 95.7295C139.636 95.7432 139.383 95.8419 139.176 96.0116C138.969 96.1813 138.818 96.4137 138.746 96.6761C135.579 108.177 133.389 116.929 132.46 120.734C119.002 108.57 115.115 107.826 105.312 105.915C101.616 105.202 94.6396 104.906 87.5505 105.165C87.2301 105.196 86.9334 105.352 86.7211 105.602C86.5088 105.852 86.3969 106.176 86.4083 106.508C86.4197 106.84 86.5535 107.155 86.7825 107.389C87.0114 107.622 87.3181 107.757 87.6398 107.765C94.4551 107.513 101.372 107.802 104.848 108.478C114.788 110.402 118.133 111.047 132.341 124.103C132.503 124.258 132.702 124.367 132.918 124.418C133.134 124.469 133.359 124.461 133.571 124.394C133.783 124.326 133.974 124.203 134.125 124.035C134.275 123.867 134.381 123.662 134.43 123.439C134.43 123.334 136.811 113.272 140.936 98.3111C149.475 98.3339 157.978 99.4509 166.251 101.636C164.078 118.712 157.233 160.128 149.269 164.4C139.847 169.447 125.347 160.509 117.544 154.738C117.369 154.608 117.165 154.526 116.951 154.501C116.737 154.476 116.52 154.509 116.322 154.595C116.123 154.681 115.95 154.819 115.818 154.995C115.686 155.17 115.599 155.378 115.568 155.598L113.782 167.517C113.752 167.723 113.768 167.933 113.83 168.131L126.627 207.857L124.966 208.159C91.2707 214.342 67.4201 213.783 54.0693 206.499C53.9232 206.418 53.763 206.368 53.5981 206.351C53.4331 206.334 53.2666 206.351 53.1079 206.401C52.9493 206.451 52.8017 206.532 52.6735 206.641C52.5454 206.749 52.4392 206.883 52.361 207.034C52.2829 207.185 52.2343 207.35 52.218 207.52C52.2017 207.691 52.2181 207.863 52.2662 208.026C52.3142 208.19 52.3931 208.343 52.4982 208.475C52.6034 208.607 52.7327 208.717 52.8789 208.798C60.4561 212.928 71.176 215.024 84.9256 215.024Z" fill="#1A1A1A"/>
<path d="M36.4026 214.55C36.6857 214.551 36.9609 214.453 37.1835 214.273C37.4061 214.092 37.563 213.839 37.6287 213.554L46.7654 173.736C47.5035 181.081 48.6046 190.947 49.9081 194.899C50.0163 195.225 50.2454 195.493 50.5451 195.645C50.8448 195.797 51.1906 195.819 51.5063 195.707C51.822 195.596 52.0819 195.359 52.2287 195.05C52.3754 194.74 52.3972 194.383 52.289 194.057C50.8903 189.834 49.6403 177.221 48.9677 170.448C48.7475 168.222 48.5868 166.612 48.4796 165.85C48.4411 165.548 48.3011 165.27 48.0839 165.064C47.8668 164.858 47.5864 164.737 47.2919 164.723C46.9974 164.71 46.7075 164.803 46.473 164.988C46.2386 165.172 46.0745 165.436 46.0094 165.733L35.4264 211.876L7.21291 209.78C8.24264 204.764 9.3081 199.122 10.4271 193.184C14.3794 172.285 19.3019 146.242 25.8255 131.103C35.1109 109.589 63.0923 108.606 66.2529 108.569C66.4184 108.567 66.5819 108.532 66.734 108.465C66.8862 108.398 67.0241 108.3 67.1397 108.178C67.2552 108.056 67.3463 107.911 67.4076 107.753C67.469 107.594 67.4993 107.424 67.4969 107.253C67.4892 106.91 67.3515 106.583 67.1135 106.343C66.8755 106.103 66.5559 105.969 66.2232 105.969C62.8959 106.006 33.4503 107.032 23.522 130.045C16.8793 145.412 11.933 171.628 7.95693 192.668C6.72482 199.177 5.57606 205.33 4.45109 210.678C4.41353 210.86 4.41373 211.048 4.45169 211.231C4.48964 211.413 4.56449 211.585 4.67132 211.735C4.7793 211.884 4.91705 212.007 5.07521 212.096C5.23337 212.185 5.40825 212.238 5.58796 212.251L36.3133 214.532L36.4026 214.55Z" fill="#1A1A1A"/>
<path d="M84.1572 97.0936C85.1665 97.0929 86.1746 97.0231 87.1749 96.8847C87.3401 96.8625 87.4995 96.8068 87.6437 96.7208C87.7879 96.6347 87.9143 96.5201 88.0154 96.3834C88.1165 96.2466 88.1904 96.0906 88.2328 95.9243C88.2752 95.7579 88.2853 95.5845 88.2626 95.4141C88.2398 95.2437 88.1845 95.0797 88.1 94.9314C88.0155 94.7832 87.9035 94.6537 87.7703 94.5504C87.6371 94.4471 87.4854 94.3721 87.3239 94.3296C87.1625 94.2872 86.9945 94.2781 86.8297 94.3031C84.0552 94.7428 81.2192 94.4942 78.5562 93.5777C78.4012 93.5022 78.2329 93.4601 78.0616 93.4539C77.8903 93.4477 77.7196 93.4777 77.5599 93.5419C77.4002 93.6061 77.2548 93.7032 77.1327 93.8273C77.0105 93.9514 76.9141 94.0999 76.8493 94.2638C76.7846 94.4276 76.7528 94.6034 76.756 94.7804C76.7592 94.9573 76.7972 95.1317 76.8678 95.293C76.9384 95.4543 77.0401 95.599 77.1666 95.7184C77.2931 95.8377 77.4419 95.9292 77.6038 95.9872C79.7073 96.755 81.9264 97.1296 84.1572 97.0936V97.0936Z" fill="#1A1A1A"/>
<path d="M75.3242 72.6716C75.6532 72.672 75.9692 72.5396 76.2051 72.3028C76.7829 71.7125 77.5455 71.3541 78.356 71.2922C79.1666 71.2302 79.972 71.4687 80.6276 71.9648C80.8988 72.1569 81.2319 72.2322 81.556 72.1745C81.8801 72.1168 82.1696 71.9307 82.3628 71.6559C82.556 71.381 82.6377 71.0391 82.5904 70.703C82.5431 70.3669 82.3707 70.0632 82.1097 69.8564C80.9679 69.0061 79.5711 68.6012 78.1675 68.7138C76.7639 68.8263 75.4444 69.4489 74.4433 70.4711C74.2622 70.6511 74.1377 70.883 74.0856 71.1368C74.0336 71.3907 74.0565 71.6548 74.1513 71.8951C74.2462 72.1354 74.4087 72.3407 74.6178 72.4847C74.8268 72.6286 75.0729 72.7044 75.3242 72.7024V72.6716Z" fill="#1A1A1A"/>
<path d="M86.2174 86.9465C86.8684 86.9369 87.5143 86.8271 88.134 86.6207C88.4047 86.4838 88.619 86.2513 88.7381 85.9654C88.8572 85.6794 88.8733 85.3589 88.7834 85.0618C88.6935 84.7646 88.5035 84.5106 88.2479 84.3455C87.9923 84.1805 87.688 84.1154 87.39 84.162C87.0551 84.3107 86.6933 84.3837 86.3289 84.3763C85.9645 84.3689 85.6058 84.2811 85.2769 84.119C84.7915 83.7278 84.463 83.1653 84.3543 82.5393C84.2894 82.215 84.1073 81.9284 83.8451 81.7377C83.5829 81.547 83.2602 81.4666 82.9426 81.5127C82.625 81.5589 82.3364 81.7282 82.1354 81.9863C81.9343 82.2443 81.836 82.5717 81.8603 82.902C81.9607 83.5839 82.1945 84.2375 82.5476 84.8229C82.9007 85.4084 83.3655 85.9134 83.9139 86.3072C84.605 86.7476 85.4056 86.9698 86.2174 86.9465Z" fill="#1A1A1A"/>
<path d="M77.2884 119.049C94.3415 119.049 105.264 108.378 105.401 108.218C105.637 107.974 105.771 107.642 105.771 107.296C105.771 106.95 105.637 106.619 105.401 106.374C105.164 106.13 104.843 105.992 104.508 105.992C104.173 105.992 103.852 106.13 103.615 106.374C102.746 107.247 81.9132 127.513 52.2296 108.427C52.0892 108.337 51.9331 108.277 51.7702 108.249C51.6072 108.221 51.4405 108.227 51.2797 108.266C51.1188 108.304 50.967 108.376 50.8328 108.475C50.6986 108.574 50.5846 108.7 50.4975 108.845C50.4103 108.99 50.3516 109.151 50.3248 109.319C50.298 109.488 50.3035 109.66 50.3411 109.826C50.3787 109.992 50.4476 110.149 50.5439 110.287C50.6401 110.426 50.7619 110.544 50.9022 110.634C60.7055 116.879 69.6338 119.049 77.2884 119.049Z" fill="#1A1A1A"/>
<path d="M87.5919 107.772C87.7625 107.77 87.931 107.732 88.0873 107.662C88.2437 107.591 88.3848 107.489 88.5024 107.361C88.62 107.234 88.7116 107.083 88.772 106.918C88.8323 106.753 88.8601 106.578 88.8537 106.401L88.3181 96.6097C94.55 94.8395 97.6095 89.1784 97.3357 79.7494C97.341 79.5716 97.3109 79.3946 97.2475 79.2292C97.184 79.0639 97.0885 78.9137 96.9667 78.7879C96.8449 78.6621 96.6994 78.5635 96.5393 78.4979C96.3792 78.4324 96.2078 78.4014 96.0356 78.4069C95.8635 78.4123 95.6942 78.4541 95.5383 78.5297C95.3824 78.6053 95.2431 78.713 95.129 78.8462C95.0149 78.9795 94.9285 79.1355 94.875 79.3045C94.8214 79.4736 94.802 79.6522 94.8179 79.8293C95.1869 92.6144 89.068 93.8499 86.7586 94.317C86.4604 94.3787 86.1939 94.5495 86.008 94.798C85.8221 95.0464 85.7293 95.3558 85.7467 95.6693L86.3419 106.543C86.3601 106.873 86.4993 107.184 86.7315 107.413C86.9637 107.641 87.2713 107.77 87.5919 107.772V107.772Z" fill="#1A1A1A"/>
<path d="M47.2363 167.34C47.4149 167.334 47.5902 167.289 47.7513 167.209C47.9125 167.13 48.056 167.016 48.1727 166.877C48.2895 166.737 48.3771 166.574 48.4301 166.398C48.483 166.222 48.5001 166.036 48.4803 165.853C46.9268 155.342 45.2542 140.393 45.2363 140.245C45.1985 139.903 45.0304 139.59 44.7692 139.376C44.508 139.162 44.175 139.063 43.8435 139.102C43.512 139.141 43.2091 139.315 43.0015 139.585C42.7939 139.854 42.6985 140.198 42.7364 140.54C42.7364 140.688 44.4269 155.686 45.9923 166.246C46.0403 166.551 46.1918 166.829 46.4196 167.029C46.6475 167.229 46.937 167.34 47.2363 167.34V167.34Z" fill="#1A1A1A"/>
<path d="M79.6696 77.236C79.4021 77.2494 79.1404 77.1527 78.9419 76.9672C78.7433 76.7817 78.624 76.5225 78.6101 76.2464L78.5744 75.435C78.5765 75.1684 78.6771 74.9127 78.8558 74.7202C79.0345 74.5277 79.2777 74.4131 79.5356 74.3998C79.7934 74.3864 80.0465 74.4753 80.2429 74.6484C80.4393 74.8214 80.5643 75.0654 80.5922 75.3305L80.6339 76.1419C80.6452 76.4187 80.5503 76.6889 80.3697 76.8938C80.1891 77.0987 79.9375 77.2217 79.6696 77.236V77.236Z" fill="#1A1A1A"/>
<path d="M91.3715 76.7549C91.104 76.7683 90.8423 76.6717 90.6437 76.4862C90.4451 76.3007 90.3258 76.0415 90.312 75.7653L90.2763 74.954C90.2696 74.8167 90.2892 74.6795 90.3339 74.5501C90.3786 74.4207 90.4476 74.3017 90.5369 74.1998C90.7171 73.994 90.9692 73.8706 91.2375 73.8568C91.5059 73.8429 91.7686 73.9397 91.9679 74.1259C92.1671 74.3121 92.2866 74.5723 92.3 74.8495L92.3357 75.6608C92.3421 75.7981 92.3223 75.9353 92.2773 76.0646C92.2322 76.1939 92.163 76.3128 92.0734 76.4144C91.9838 76.5161 91.8757 76.5984 91.7553 76.6569C91.6348 76.7153 91.5044 76.7486 91.3715 76.7549V76.7549Z" fill="#1A1A1A"/>
<path d="M88.9432 83.1159C89.1234 83.1104 89.3005 83.0662 89.4633 82.986C89.626 82.9059 89.7708 82.7917 89.8884 82.6506C90.006 82.5095 90.0938 82.3446 90.1463 82.1665C90.1988 81.9884 90.2147 81.8009 90.1931 81.6161L89.1932 75.1067C89.0972 74.4756 89.151 73.8298 89.3501 73.2248C89.5492 72.6199 89.8875 72.0739 90.336 71.6339C90.756 71.208 91.2713 70.896 91.8362 70.7255C92.4011 70.555 92.9981 70.5313 93.574 70.6565C93.7444 70.7214 93.926 70.7495 94.1074 70.739C94.2887 70.7286 94.4661 70.6798 94.6285 70.5956C94.7908 70.5115 94.9348 70.3939 95.0513 70.25C95.1679 70.1061 95.2546 69.939 95.3061 69.7591C95.3872 69.4241 95.3362 69.0696 95.1643 68.7734C94.9924 68.4772 94.7137 68.2636 94.3895 68.1794C94.2878 68.1483 94.1845 68.1237 94.0799 68.1057C93.1054 67.895 92.0957 67.9351 91.1397 68.2223C90.1838 68.5096 89.3109 69.0353 88.598 69.753C87.8566 70.4807 87.2971 71.3831 86.9675 72.383C86.6378 73.3828 86.5478 74.4503 86.7052 75.494L87.6992 82.0033C87.7433 82.3118 87.8931 82.5937 88.1214 82.7978C88.3496 83.002 88.6412 83.1148 88.9432 83.1159V83.1159Z" fill="#1A1A1A"/>
<path d="M66.9199 83.1161C67.1284 83.1117 67.3328 83.0548 67.5151 82.9502L69.6519 81.7208C69.8157 81.6174 69.9545 81.4766 70.0576 81.3094C70.1607 81.1422 70.2256 80.9528 70.2472 80.7558C70.2739 80.5563 70.2544 80.3531 70.1902 80.1629C70.1261 79.9727 70.0191 79.8009 69.8781 79.6617L66.4378 76.1827C66.201 75.9382 65.8798 75.8008 65.5449 75.8008C65.2101 75.8008 64.8889 75.9382 64.6521 76.1827C64.4153 76.4272 64.2823 76.7589 64.2823 77.1047C64.2823 77.4505 64.4153 77.7822 64.6521 78.0267L66.8961 80.2948L66.2175 80.6943C65.9576 80.8264 65.7498 81.0472 65.6295 81.3193C65.5091 81.5914 65.4836 81.8981 65.5571 82.1874C65.6307 82.4768 65.7988 82.731 66.0331 82.9069C66.2673 83.0829 66.5533 83.1698 66.8425 83.153L66.9199 83.1161Z" fill="#1A1A1A"/>
<path d="M142.752 42.4249C143.298 40.9927 145.186 40.6816 146.162 41.863L151.373 48.1671C151.731 48.5999 152.254 48.8624 152.815 48.8904L160.984 49.2987C162.515 49.3753 163.394 51.0748 162.572 52.3687L158.187 59.272C157.886 59.746 157.798 60.3247 157.944 60.8668L160.08 68.7614C160.481 70.2411 159.136 71.6025 157.652 71.2207L149.73 69.1833C149.186 69.0434 148.609 69.1386 148.139 69.4455L141.289 73.9166C140.006 74.7545 138.296 73.8964 138.2 72.3665L137.69 64.204C137.655 63.6435 137.386 63.1236 136.949 62.7713L130.58 57.6399C129.386 56.6781 129.674 54.7863 131.099 54.2226L138.705 51.2152C139.228 51.0087 139.639 50.5922 139.839 50.0676L142.752 42.4249Z" fill="#FFFBA5"/>
<path d="M112.343 41.2609C112.889 39.8287 114.777 39.5176 115.754 40.699L118.035 43.4582C118.392 43.891 118.916 44.1534 119.476 44.1815L123.052 44.3602C124.583 44.4367 125.462 46.1363 124.64 47.4301L122.721 50.4513C122.42 50.9253 122.332 51.504 122.478 52.0461L123.413 55.5012C123.813 56.9808 122.469 58.3423 120.984 57.9604L117.517 57.0687C116.973 56.9289 116.396 57.024 115.926 57.3309L112.928 59.2878C111.645 60.1257 109.934 59.2676 109.839 57.7378L109.615 54.1654C109.58 53.605 109.311 53.0851 108.874 52.7327L106.087 50.487C104.893 49.5252 105.181 47.6334 106.606 47.0698L109.935 45.7535C110.457 45.5471 110.869 45.1306 111.069 44.6059L112.343 41.2609Z" fill="#FFFBA5"/>
</g>
<g filter="url(#filter0_d)">
<path d="M226.32 108.016V104.896H234.336V108.016H226.32ZM234.336 97.696V100.672H226.32V97.696H234.336ZM239.856 92.896H220.896V121.888H226.32V112.192H234.336V116.464C234.336 117.04 234.144 117.232 233.568 117.232C232.944 117.28 231.024 117.28 229.248 117.184C229.968 118.48 230.784 120.592 231.072 122.032C234 122.032 236.208 121.936 237.744 121.12C239.376 120.304 239.856 118.96 239.856 116.512V92.896ZM253.536 115.792C253.536 116.464 253.296 116.656 252.528 116.656C251.712 116.704 249.216 116.704 246.768 116.608C247.632 118.096 248.544 120.448 248.832 121.984C252.288 122.032 254.88 121.888 256.704 121.024C258.624 120.112 259.152 118.72 259.152 115.888V92.032H253.536V115.792ZM249.216 93.376H243.984V112.96H249.216V93.376ZM251.952 84.448C253.152 82.768 254.448 80.896 255.6 79.024L249.408 77.2C248.448 79.408 246.912 82.24 245.472 84.448H232.128L234.768 83.536C233.952 81.712 232.032 79.12 230.304 77.296L224.88 79.168C226.224 80.752 227.616 82.816 228.48 84.448H218.256V89.584H261.696V84.448H251.952ZM275.568 77.392C273.504 80.608 269.184 84.544 265.44 86.896C266.352 88.096 267.648 90.448 268.272 91.696C272.832 88.768 277.776 84.016 280.944 79.552L275.568 77.392ZM277.056 87.52C274.176 92.272 269.376 97.072 264.96 100.144C265.92 101.344 267.456 104.32 267.984 105.616C269.376 104.512 270.768 103.264 272.208 101.872V122.176H277.728V95.824C279.36 93.808 280.896 91.696 282.144 89.632L277.056 87.52ZM298.56 115.312V106.192H307.824V100.912H298.56V92.32H308.64V86.944H298.512L301.824 83.728C299.568 81.712 295.008 79.024 291.552 77.344L287.664 81.088C290.64 82.624 294.288 85.024 296.592 86.944H282.288V92.32H292.464V100.912H283.296V106.192H292.464V115.312H280.416V120.784H310.416V115.312H298.56ZM337.584 79.072H326.736V83.344H337.584V79.072ZM321.264 77.488C319.392 84.064 316.224 90.592 312.672 94.864C313.536 96.352 314.784 99.664 315.168 101.056C316.128 99.904 317.088 98.56 318 97.168V122.128H322.992V87.856C324.288 84.928 325.44 81.952 326.352 79.024L321.264 77.488ZM339.024 85.504H325.008V89.824H339.024V85.504ZM337.824 96.208V91.888H326.448V96.208H337.824ZM334.176 109.456V114.832H330.432V109.456H334.176ZM338.64 105.184H326.016V121.648H330.432V119.104H338.64V105.184ZM346.752 100.672C348.096 99.232 349.344 97.648 350.496 95.968H352.272L349.92 97.648C351.072 98.512 352.32 99.712 353.088 100.672H346.752ZM347.088 115.936V112.672H351.648V115.936H347.088ZM351.648 108.544H347.088V105.376H351.648V108.544ZM347.856 87.136H350.256C349.536 88.624 348.768 90.064 347.904 91.408H347.856V87.136ZM358.464 91.408H353.328C355.344 87.712 357.024 83.68 358.32 79.264L353.568 78.208C352.896 80.656 352.08 83.008 351.12 85.264V82.624H347.856V77.392H342.912V82.624H339.792V87.136H342.912V91.408H338.88V95.968H344.544C342.528 98.272 340.32 100.336 337.824 102.016V98.464H326.448V102.784H336.864C337.92 103.744 339.6 105.52 340.272 106.384C340.944 105.904 341.616 105.424 342.24 104.896V122.08H347.088V120.592H351.648V121.888H356.688V100.672H354.528L356.928 98.992C356.256 98.032 355.008 96.88 353.808 95.968H358.464V91.408ZM371.472 77.488C369.168 84.304 365.232 91.072 361.104 95.44C362.064 96.88 363.6 100 364.128 101.392C364.992 100.384 365.856 99.328 366.72 98.176V122.128H372V89.68C373.776 86.272 375.408 82.72 376.656 79.216L371.472 77.488ZM383.184 113.776H397.392V116.464H383.184V113.776ZM397.392 94.048V96.688H383.184V94.048H397.392ZM397.392 107.104V109.84H383.184V107.104H397.392ZM397.392 103.264H383.184V100.624H397.392V103.264ZM402.672 116.464V89.872H391.584C391.872 88.864 392.112 87.808 392.4 86.608H405.216V81.712H393.408C393.648 80.32 393.936 78.976 394.128 77.632L388.08 77.44C387.984 78.784 387.84 80.176 387.696 81.712H376.128V86.608H387.024C386.832 87.76 386.64 88.864 386.448 89.872H378.144V116.464H374.016V121.264H406.32V116.464H402.672Z" fill="white"/>
</g>
</g>
<defs>
<filter id="filter0_d" x="208.256" y="67.1992" width="208.064" height="64.976" filterUnits="userSpaceOnUse" color-interpolation-filters="sRGB">
<feFlood flood-opacity="0" result="BackgroundImageFix"/>
<feColorMatrix in="SourceAlpha" type="matrix" values="0 0 0 0 0 0 0 0 0 0 0 0 0 0 0 0 0 0 127 0" result="hardAlpha"/>
<feOffset/>
<feGaussianBlur stdDeviation="5"/>
<feComposite in2="hardAlpha" operator="out"/>
<feColorMatrix type="matrix" values="0 0 0 0 0.5875 0 0 0 0 0 0 0 0 0 0 0 0 0 0.7 0"/>
<feBlend mode="normal" in2="BackgroundImageFix" result="effect1_dropShadow"/>
<feBlend mode="normal" in="SourceGraphic" in2="effect1_dropShadow" result="shape"/>
</filter>
<clipPath id="clip0">
<path d="M0 8C0 3.58172 3.58172 0 8 0H424C428.418 0 432 3.58172 432 8V188C432 192.418 428.418 196 424 196H8C3.58172 196 0 192.418 0 188V8Z" fill="white"/>
</clipPath>
<clipPath id="clip1">
<rect width="213" height="177" fill="white" transform="matrix(-1 0 0 1 188 38)"/>
</clipPath>
</defs>
</svg>
