<svg width="32" height="32" viewBox="0 0 32 32" fill="none" xmlns="http://www.w3.org/2000/svg">
<path d="M0 4C0 1.79086 1.79086 0 4 0H28C30.2091 0 32 1.79086 32 4V28C32 30.2091 30.2091 32 28 32H4C1.79086 32 0 30.2091 0 28V4Z" fill="#011F2C"/>
<path d="M7.2 12.6C7.2 12.0477 7.64772 11.6 8.2 11.6H22.8C23.9046 11.6 24.8 12.4954 24.8 13.6V25.9C24.8 26.1917 24.6841 26.4715 24.4778 26.6778C24.2715 26.8841 23.9917 27 23.7 27H8.3C8.00826 27 7.72847 26.8841 7.52218 26.6778C7.31589 26.4715 7.2 26.1917 7.2 25.9V12.6ZM10.4 13.8C9.84771 13.8 9.4 14.2477 9.4 14.8V23.8C9.4 24.3523 9.84772 24.8 10.4 24.8H21.6C22.1523 24.8 22.6 24.3523 22.6 23.8V14.8C22.6 14.2477 22.1523 13.8 21.6 13.8H10.4ZM10.5 8.3V6.1C10.5 5.80826 10.6159 5.52847 10.8222 5.32218C11.0285 5.11589 11.3083 5 11.6 5H20.4C20.6917 5 20.9715 5.11589 21.1778 5.32218C21.3841 5.52847 21.5 5.80826 21.5 6.1V8.3H25.9C26.5075 8.3 27 8.79249 27 9.4C27 10.0075 26.5075 10.5 25.9 10.5H6.1C5.49249 10.5 5 10.0075 5 9.4C5 8.79249 5.49249 8.3 6.1 8.3H10.5ZM13.25 7.2C12.9462 7.2 12.7 7.44624 12.7 7.75C12.7 8.05376 12.9462 8.3 13.25 8.3H18.75C19.0538 8.3 19.3 8.05376 19.3 7.75C19.3 7.44624 19.0538 7.2 18.75 7.2H13.25Z" fill="white"/>
<line x1="12.5996" y1="17" x2="12.5996" y2="21.6" stroke="white" stroke-width="2" stroke-linecap="round"/>
<line x1="15.8994" y1="17" x2="15.8994" y2="21.6" stroke="white" stroke-width="2" stroke-linecap="round"/>
<line x1="19.1992" y1="17" x2="19.1992" y2="21.6" stroke="white" stroke-width="2" stroke-linecap="round"/>
</svg>
