<svg width="32" height="33" viewBox="0 0 32 33" fill="none" xmlns="http://www.w3.org/2000/svg">
<path d="M0 4.5C0 2.29086 1.79086 0.5 4 0.5H28C30.2091 0.5 32 2.29086 32 4.5V28.5C32 30.7091 30.2091 32.5 28 32.5H4C1.79086 32.5 0 30.7091 0 28.5V4.5Z" fill="#0F455C"/>
<path d="M7.2 13.1C7.2 12.5477 7.64772 12.1 8.2 12.1H22.8C23.9046 12.1 24.8 12.9954 24.8 14.1V26.4C24.8 26.6917 24.6841 26.9715 24.4778 27.1778C24.2715 27.3841 23.9917 27.5 23.7 27.5H8.3C8.00826 27.5 7.72847 27.3841 7.52218 27.1778C7.31589 26.9715 7.2 26.6917 7.2 26.4V13.1ZM10.4 14.3C9.84771 14.3 9.4 14.7477 9.4 15.3V24.3C9.4 24.8523 9.84772 25.3 10.4 25.3H21.6C22.1523 25.3 22.6 24.8523 22.6 24.3V15.3C22.6 14.7477 22.1523 14.3 21.6 14.3H10.4ZM10.5 8.8V6.6C10.5 6.30826 10.6159 6.02847 10.8222 5.82218C11.0285 5.61589 11.3083 5.5 11.6 5.5H20.4C20.6917 5.5 20.9715 5.61589 21.1778 5.82218C21.3841 6.02847 21.5 6.30826 21.5 6.6V8.8H25.9C26.5075 8.8 27 9.29249 27 9.9C27 10.5075 26.5075 11 25.9 11H6.1C5.49249 11 5 10.5075 5 9.9C5 9.29249 5.49249 8.8 6.1 8.8H10.5ZM13.25 7.7C12.9462 7.7 12.7 7.94624 12.7 8.25C12.7 8.55376 12.9462 8.8 13.25 8.8H18.75C19.0538 8.8 19.3 8.55376 19.3 8.25C19.3 7.94624 19.0538 7.7 18.75 7.7H13.25Z" fill="white"/>
<line x1="12.5996" y1="17.5" x2="12.5996" y2="22.1" stroke="white" stroke-width="2" stroke-linecap="round"/>
<line x1="15.8994" y1="17.5" x2="15.8994" y2="22.1" stroke="white" stroke-width="2" stroke-linecap="round"/>
<line x1="19.1992" y1="17.5" x2="19.1992" y2="22.1" stroke="white" stroke-width="2" stroke-linecap="round"/>
</svg>
