<svg width="32" height="32" viewBox="0 0 32 32" fill="none" xmlns="http://www.w3.org/2000/svg">
<rect width="32" height="32" rx="4" fill="#333333"/>
<path d="M23.8753 25.1797H8.12943C7.83114 25.1797 7.54507 25.2982 7.33415 25.5091C7.12322 25.7201 7.00473 26.0061 7.00473 26.3044C7.00473 26.6027 7.12322 26.8888 7.33415 27.0997C7.54507 27.3106 7.83114 27.4291 8.12943 27.4291H23.8753C24.1736 27.4291 24.4597 27.3106 24.6706 27.0997C24.8815 26.8888 25 26.6027 25 26.3044C25 26.0061 24.8815 25.7201 24.6706 25.5091C24.4597 25.2982 24.1736 25.1797 23.8753 25.1797ZM8.12943 22.9303H8.23066L12.9207 22.5029C13.4344 22.4517 13.915 22.2254 14.2816 21.8618L24.4039 11.7395C24.7968 11.3244 25.0091 10.7706 24.9944 10.1993C24.9796 9.62794 24.739 9.08577 24.3252 8.69155L21.2435 5.60986C20.8413 5.23207 20.3142 5.0153 19.7626 5.00078C19.211 4.98626 18.6733 5.17502 18.2518 5.53113L8.12943 15.6535C7.76589 16.0201 7.53953 16.5006 7.48835 17.0144L7.00473 21.7044C6.98958 21.8691 7.01095 22.0352 7.06733 22.1907C7.12371 22.3462 7.2137 22.4874 7.33089 22.6041C7.43598 22.7084 7.56062 22.7909 7.69765 22.8468C7.83468 22.9028 7.98141 22.9312 8.12943 22.9303ZM19.6801 7.18445L22.7506 10.2549L20.5012 12.4481L17.487 9.43386L19.6801 7.18445ZM9.67028 17.2056L16.0024 10.9185L19.0391 13.9552L12.7407 20.2535L9.36661 20.5684L9.67028 17.2056Z" fill="white"/>
</svg>
