<svg width="32" height="32" viewBox="0 0 32 32" fill="none" xmlns="http://www.w3.org/2000/svg">
<path d="M5 7.10333C5.00201 6.81153 5.11759 6.53224 5.32176 6.3258C5.52594 6.11935 5.80232 6.00233 6.0912 6H25.9088C26.5116 6 27 6.49444 27 7.10333V24.8967C26.998 25.1885 26.8824 25.4678 26.6782 25.6742C26.4741 25.8806 26.1977 25.9977 25.9088 26H6.0912C5.80169 25.9997 5.52415 25.8833 5.31954 25.6764C5.11493 25.4696 5 25.1891 5 24.8967V7.10333ZM11.6 8.22222V23.7778H20.4V8.22222H11.6ZM7.2 8.22222V10.4444H9.4V8.22222H7.2ZM22.6 8.22222V10.4444H24.8V8.22222H22.6ZM7.2 12.6667V14.8889H9.4V12.6667H7.2ZM22.6 12.6667V14.8889H24.8V12.6667H22.6ZM7.2 17.1111V19.3333H9.4V17.1111H7.2ZM22.6 17.1111V19.3333H24.8V17.1111H22.6ZM7.2 21.5556V23.7778H9.4V21.5556H7.2ZM22.6 21.5556V23.7778H24.8V21.5556H22.6Z" fill="#666666"/>
<rect x="0.5" y="0.5" width="31" height="31" rx="3.5" stroke="#808080"/>
</svg>
