<svg width="32" height="32" viewBox="0 0 32 32" fill="none" xmlns="http://www.w3.org/2000/svg">
<rect width="32" height="32" rx="4" fill="#333333"/>
<path d="M20.5833 14.44C20.2518 14.44 19.9339 14.3262 19.6995 14.1237C19.465 13.9211 19.3333 13.6464 19.3333 13.36C19.3333 13.0736 19.465 12.7989 19.6995 12.5963C19.9339 12.3938 20.2518 12.28 20.5833 12.28C20.9149 12.28 21.2328 12.3938 21.4672 12.5963C21.7016 12.7989 21.8333 13.0736 21.8333 13.36C21.8333 13.6464 21.7016 13.9211 21.4672 14.1237C21.2328 14.3262 20.9149 14.44 20.5833 14.44ZM20.5833 18.76C20.2518 18.76 19.9339 18.6462 19.6995 18.4437C19.465 18.2411 19.3333 17.9664 19.3333 17.68C19.3333 17.3936 19.465 17.1189 19.6995 16.9163C19.9339 16.7138 20.2518 16.6 20.5833 16.6C20.9149 16.6 21.2328 16.7138 21.4672 16.9163C21.7016 17.1189 21.8333 17.3936 21.8333 17.68C21.8333 17.9664 21.7016 18.2411 21.4672 18.4437C21.2328 18.6462 20.9149 18.76 20.5833 18.76ZM19.3333 22C19.3333 22.2864 19.465 22.5611 19.6995 22.7637C19.9339 22.9662 20.2518 23.08 20.5833 23.08C20.9149 23.08 21.2328 22.9662 21.4672 22.7637C21.7016 22.5611 21.8333 22.2864 21.8333 22C21.8333 21.7136 21.7016 21.4389 21.4672 21.2363C21.2328 21.0338 20.9149 20.92 20.5833 20.92C20.2518 20.92 19.9339 21.0338 19.6995 21.2363C19.465 21.4389 19.3333 21.7136 19.3333 22ZM17.6667 13.36C17.6667 13.169 17.5789 12.9859 17.4226 12.8509C17.2663 12.7159 17.0543 12.64 16.8333 12.64H11C10.779 12.64 10.567 12.7159 10.4107 12.8509C10.2545 12.9859 10.1667 13.169 10.1667 13.36C10.1667 13.551 10.2545 13.7341 10.4107 13.8691C10.567 14.0041 10.779 14.08 11 14.08H16.8333C17.0543 14.08 17.2663 14.0041 17.4226 13.8691C17.5789 13.7341 17.6667 13.551 17.6667 13.36ZM17.6667 17.68C17.6667 17.489 17.5789 17.3059 17.4226 17.1709C17.2663 17.0359 17.0543 16.96 16.8333 16.96H11C10.779 16.96 10.567 17.0359 10.4107 17.1709C10.2545 17.3059 10.1667 17.489 10.1667 17.68C10.1667 17.871 10.2545 18.0541 10.4107 18.1891C10.567 18.3241 10.779 18.4 11 18.4H16.8333C17.0543 18.4 17.2663 18.3241 17.4226 18.1891C17.5789 18.0541 17.6667 17.871 17.6667 17.68ZM17.6667 22C17.6667 21.809 17.5789 21.6259 17.4226 21.4909C17.2663 21.3559 17.0543 21.28 16.8333 21.28H11C10.779 21.28 10.567 21.3559 10.4107 21.4909C10.2545 21.6259 10.1667 21.809 10.1667 22C10.1667 22.191 10.2545 22.3741 10.4107 22.5091C10.567 22.6441 10.779 22.72 11 22.72H16.8333C17.0543 22.72 17.2663 22.6441 17.4226 22.5091C17.5789 22.3741 17.6667 22.191 17.6667 22ZM13.5 4C12.9828 3.99977 12.4782 4.13814 12.0558 4.39604C11.6335 4.65395 11.3141 5.01869 11.1417 5.44H8.5C7.83696 5.44 7.20107 5.66757 6.73223 6.07265C6.26339 6.47773 6 7.02713 6 7.6V24.88C6 25.4529 6.26339 26.0023 6.73223 26.4073C7.20107 26.8124 7.83696 27.04 8.5 27.04H23.5C24.163 27.04 24.7989 26.8124 25.2678 26.4073C25.7366 26.0023 26 25.4529 26 24.88V7.6C26 7.02713 25.7366 6.47773 25.2678 6.07265C24.7989 5.66757 24.163 5.44 23.5 5.44H20.8583C20.6859 5.01869 20.3665 4.65395 19.9441 4.39604C19.5218 4.13814 19.0172 3.99977 18.5 4H13.5ZM12.6667 6.16C12.6667 5.96904 12.7545 5.78591 12.9107 5.65088C13.067 5.51586 13.279 5.44 13.5 5.44H18.5C18.721 5.44 18.933 5.51586 19.0893 5.65088C19.2455 5.78591 19.3333 5.96904 19.3333 6.16C19.3333 6.35096 19.2455 6.53409 19.0893 6.66912C18.933 6.80414 18.721 6.88 18.5 6.88H13.5C13.279 6.88 13.067 6.80414 12.9107 6.66912C12.7545 6.53409 12.6667 6.35096 12.6667 6.16ZM8.5 6.88H11.1417C11.3141 7.30131 11.6335 7.66605 12.0558 7.92396C12.4782 8.18186 12.9828 8.32023 13.5 8.32H18.5C19.0172 8.32023 19.5218 8.18186 19.9441 7.92396C20.3665 7.66605 20.6859 7.30131 20.8583 6.88H23.5C23.721 6.88 23.933 6.95586 24.0893 7.09088C24.2455 7.22591 24.3333 7.40904 24.3333 7.6V24.88C24.3333 25.071 24.2455 25.2541 24.0893 25.3891C23.933 25.5241 23.721 25.6 23.5 25.6H8.5C8.27899 25.6 8.06702 25.5241 7.91074 25.3891C7.75446 25.2541 7.66667 25.071 7.66667 24.88V7.6C7.66667 7.40904 7.75446 7.22591 7.91074 7.09088C8.06702 6.95586 8.27899 6.88 8.5 6.88Z" fill="white" stroke="white" stroke-width="0.8"/>
</svg>
