<svg width="32" height="32" viewBox="0 0 32 32" fill="none" xmlns="http://www.w3.org/2000/svg">
<rect width="32" height="32" rx="4" fill="#333333"/>
<path d="M26.6446 14.5797C26.4666 14.3298 26.2315 14.126 25.9588 13.9852C25.6861 13.8445 25.3838 13.771 25.0769 13.7707H24.2356V12.2318C24.235 11.7218 24.0322 11.2329 23.6716 10.8723C23.3109 10.5117 22.822 10.3088 22.312 10.3083H15.7719L13.2071 8.38471C12.8738 8.13575 12.4691 8.00085 12.053 8H6.92356C6.41357 8.00056 5.92463 8.2034 5.56402 8.56402C5.2034 8.92463 5.00056 9.41357 5 9.92356V23.7732C5 23.7782 5.00067 23.7831 5.00077 23.7881C5.00096 23.8032 5.00221 23.818 5.00298 23.833C5.00452 23.8617 5.00654 23.8901 5.0101 23.9182C5.01193 23.9324 5.01423 23.9466 5.01654 23.9607C5.02142 23.9903 5.02735 24.0195 5.03434 24.0482C5.03741 24.0607 5.04039 24.073 5.04395 24.0853C5.0529 24.1174 5.06348 24.1488 5.07511 24.1798C5.07838 24.1886 5.08127 24.1975 5.08473 24.2062C5.11711 24.286 5.15838 24.362 5.20774 24.4326C5.20976 24.4356 5.2114 24.4389 5.21351 24.4419C5.21842 24.4489 5.22438 24.4549 5.22948 24.4618C5.24775 24.4862 5.2667 24.5099 5.28671 24.5328C5.29645 24.5439 5.30636 24.5548 5.31643 24.5655C5.33662 24.5866 5.35759 24.607 5.37933 24.6268C5.38894 24.6356 5.39846 24.6447 5.40847 24.6533C5.47303 24.708 5.54341 24.7555 5.61833 24.7949C5.62679 24.7993 5.63545 24.803 5.64401 24.8073C5.67363 24.8219 5.70393 24.8355 5.73499 24.8477C5.74615 24.852 5.7574 24.8559 5.76875 24.86C5.79812 24.8704 5.82793 24.8796 5.8582 24.8876C5.87041 24.8909 5.88253 24.8941 5.89474 24.897C5.92581 24.9041 5.95745 24.9096 5.98929 24.9142C6.00083 24.9159 6.01208 24.9181 6.02362 24.9194C6.06694 24.9245 6.11052 24.9271 6.15413 24.9273H23.0814C23.3211 24.9273 23.5549 24.8527 23.7502 24.7138C23.9455 24.5749 24.0928 24.3787 24.1715 24.1523L26.8936 16.3261C26.9942 16.0362 27.024 15.7265 26.9807 15.4227C26.9374 15.119 26.8221 14.83 26.6445 14.5797H26.6446ZM11.9248 10.3083L14.4896 12.2318C14.8229 12.4808 15.2277 12.6157 15.6437 12.6165H21.9273V13.7707H9.77879C9.37938 13.7709 8.98994 13.8954 8.66441 14.1268C8.33889 14.3582 8.09341 14.6852 7.96199 15.0623L7.30827 16.9419V10.3083H11.9248ZM22.261 22.619H7.77752L10.0523 16.0789H24.5357L22.261 22.619Z" fill="white"/>
</svg>
