<svg width="40" height="40" viewBox="0 0 40 40" fill="none" xmlns="http://www.w3.org/2000/svg">
<rect width="40" height="40" rx="4" fill="#666666"/>
<path d="M28.6554 8.58941L28.8412 12.4691C26.7105 9.96425 23.5371 8.375 19.9922 8.375C14.3153 8.375 9.58958 12.4496 8.576 17.8355C8.51098 18.1809 8.77781 18.5 9.12909 18.5H11.4284C11.6893 18.5 11.9145 18.3199 11.9754 18.066C12.8441 14.441 16.1009 11.75 19.9922 11.75C22.8447 11.75 25.3565 13.1964 26.8364 15.3969L22.0802 15.1689C21.7596 15.1535 21.4912 15.4095 21.4912 15.7307V17.9531C21.4912 18.2638 21.7429 18.5156 22.0534 18.5156H31.4379C31.7483 18.5156 32 18.2638 32 17.9531V8.5625C32 8.25186 31.7483 8 31.4379 8H29.2169C28.8959 8 28.64 8.26855 28.6554 8.58941ZM19.9922 28.25C17.1396 28.25 14.6277 26.8035 13.1478 24.6029L17.9198 24.8312C18.2404 24.8465 18.5087 24.5906 18.5087 24.2694V22.0469C18.5087 21.7363 18.257 21.4844 17.9466 21.4844H8.56213C8.2517 21.4844 8 21.7363 8 22.0469V31.4375C8 31.7481 8.2517 32 8.56213 32H10.7819C11.1034 32 11.3594 31.7307 11.3433 31.4094L11.1499 27.5387C13.2806 30.039 16.451 31.625 19.9922 31.625C25.6691 31.625 30.3948 27.5504 31.4084 22.1645C31.4734 21.8191 31.2066 21.5 30.8553 21.5H28.556C28.2951 21.5 28.0699 21.6801 28.009 21.934C27.1403 25.559 23.8835 28.25 19.9922 28.25Z" fill="white"/>
</svg>
