<svg width="32" height="32" viewBox="0 0 32 32" fill="none" xmlns="http://www.w3.org/2000/svg">
<path d="M0 4C0 1.79086 1.79086 0 4 0H28C30.2091 0 32 1.79086 32 4V28C32 30.2091 30.2091 32 28 32H4C1.79086 32 0 30.2091 0 28V4Z" fill="#333333"/>
<path d="M24.5833 16.5C24.5833 17.8481 25.3181 19.1536 26.5 19.7648V22.875C26.5 23.0961 26.4195 23.268 26.3248 23.373C26.2323 23.4755 26.1451 23.5 26.0833 23.5H6.91667C6.85492 23.5 6.76768 23.4755 6.67523 23.373C6.58052 23.268 6.5 23.0961 6.5 22.875V19.7648C7.68187 19.1536 8.41667 17.8481 8.41667 16.5C8.41667 15.1519 7.68187 13.8464 6.5 13.2352V10.125C6.5 9.90394 6.58052 9.73205 6.67523 9.62705C6.76768 9.52454 6.85492 9.5 6.91667 9.5H26.0833C26.1451 9.5 26.2323 9.52454 26.3248 9.62705C26.4195 9.73205 26.5 9.90394 26.5 10.125V13.2352C25.3181 13.8464 24.5833 15.1519 24.5833 16.5Z" stroke="white" stroke-width="3" stroke-linejoin="round"/>
<rect x="13" y="14" width="7" height="5" rx="2" fill="white"/>
</svg>
