<svg width="58" height="58" viewBox="0 0 58 58" fill="none" xmlns="http://www.w3.org/2000/svg">
<path d="M23.9116 37.657H33.1951C33.2317 37.6569 33.2671 37.6434 33.2945 37.6188C33.3219 37.5943 33.3395 37.5605 33.3439 37.5239C33.3671 37.3237 33.3788 37.1223 33.3789 36.9207C33.3789 36.2866 33.1259 35.5453 32.6269 34.7111C32.2341 34.0544 31.6882 33.335 31.0019 32.5811C30.2669 31.7751 29.4806 31.0181 28.648 30.3151C28.6212 30.2932 28.5878 30.2812 28.5533 30.2812C28.5188 30.2812 28.4854 30.2932 28.4586 30.3151C27.626 31.0181 26.8397 31.7751 26.1047 32.5811C25.4191 33.335 24.8725 34.0544 24.4791 34.7111C23.9801 35.5453 23.7271 36.2887 23.7271 36.9207C23.727 37.1223 23.7389 37.3237 23.7627 37.5239C23.767 37.5606 23.7845 37.5945 23.812 37.619C23.8394 37.6436 23.8749 37.6571 23.9116 37.657V37.657Z" fill="#91DAE4"/>
<path d="M36.9381 38.5932H36.2713C36.3501 38.1391 36.3896 37.6789 36.3894 37.2179C36.3894 35.9545 35.7877 34.3889 34.6009 32.5633C33.8832 31.4592 32.9564 30.26 31.8459 28.9988C32.9564 27.7375 33.8825 26.539 34.6002 25.4349C35.7884 23.61 36.3873 22.0444 36.3873 20.781C36.3877 20.32 36.3484 19.8598 36.2699 19.4057H36.9374C37.3793 19.3966 37.8002 19.2132 38.1096 18.8949C38.419 18.5766 38.5922 18.1487 38.5922 17.703C38.5922 17.2573 38.419 16.8294 38.1096 16.5111C37.8002 16.1928 37.3793 16.0094 36.9374 16.0004H20.1679C19.9433 15.9957 19.7199 16.0364 19.511 16.1199C19.3021 16.2034 19.1118 16.3281 18.9513 16.4866C18.7908 16.6452 18.6633 16.8344 18.5762 17.0433C18.4892 17.2522 18.4443 17.4765 18.4443 17.703C18.4443 17.9296 18.4892 18.1538 18.5762 18.3627C18.6633 18.5716 18.7908 18.7608 18.9513 18.9194C19.1118 19.078 19.3021 19.2026 19.511 19.2861C19.7199 19.3696 19.9433 19.4103 20.1679 19.4057H20.8347C20.7555 19.8598 20.7155 20.32 20.7152 20.781C20.7152 22.0444 21.3183 23.61 22.5044 25.4356C23.2214 26.539 24.1482 27.7382 25.258 29.0002C24.1475 30.2614 23.2214 31.4599 22.503 32.5647C21.319 34.3903 20.7152 35.9552 20.7152 37.2179C20.715 37.6789 20.7545 38.1391 20.8333 38.5932H20.1686C19.944 38.5886 19.7206 38.6293 19.5117 38.7128C19.3028 38.7963 19.1125 38.9209 18.952 39.0795C18.7915 39.2381 18.664 39.4273 18.5769 39.6362C18.4899 39.8451 18.445 40.0693 18.445 40.2959C18.445 40.5225 18.4899 40.7467 18.5769 40.9556C18.664 41.1645 18.7915 41.3537 18.952 41.5123C19.1125 41.6709 19.3028 41.7955 19.5117 41.879C19.7206 41.9625 19.944 42.0032 20.1686 41.9986H36.9381C37.1627 42.0032 37.3861 41.9625 37.595 41.879C37.8039 41.7955 37.9942 41.6709 38.1547 41.5123C38.3152 41.3537 38.4427 41.1645 38.5298 40.9556C38.6168 40.7467 38.6617 40.5225 38.6617 40.2959C38.6617 40.0693 38.6168 39.8451 38.5298 39.6362C38.4427 39.4273 38.3152 39.2381 38.1547 39.0795C37.9942 38.9209 37.8039 38.7963 37.595 38.7128C37.3861 38.6293 37.1627 38.5886 36.9381 38.5932V38.5932ZM27.029 29.5793C27.1739 29.4219 27.2543 29.2152 27.2543 29.0005C27.2543 28.7858 27.1739 28.5791 27.029 28.4217C25.7473 27.0132 24.6989 25.6928 23.9245 24.4978C22.9363 22.9759 22.4142 21.6928 22.4142 20.781C22.4139 20.3183 22.465 19.857 22.5666 19.4057H34.5373C34.64 19.8568 34.6923 20.3182 34.6932 20.781C34.6932 21.6921 34.1711 22.9773 33.1836 24.4971C32.4057 25.6949 31.3615 27.0132 30.0797 28.4196C29.9349 28.577 29.8545 28.7837 29.8545 28.9984C29.8545 29.2131 29.9349 29.4198 30.0797 29.5772C31.3622 30.9864 32.4071 32.3054 33.1843 33.5011C34.1697 35.0245 34.6932 36.3068 34.6932 37.2179C34.6935 37.6806 34.6424 38.142 34.5408 38.5932H22.568C22.4664 38.142 22.4153 37.6806 22.4156 37.2179C22.4156 36.3068 22.9377 35.0223 23.9252 33.5025C24.7024 32.3061 25.7473 30.9864 27.029 29.5793Z" fill="#91DAE4"/>
<path d="M28.5528 27.72C28.5796 27.7201 28.6059 27.7127 28.6289 27.6988C28.6988 27.6559 30.416 26.6265 31.3917 25.0397C31.4057 25.0167 31.4135 24.9904 31.4142 24.9635C31.415 24.9365 31.4086 24.9098 31.3959 24.8861C31.3828 24.8626 31.3638 24.843 31.3407 24.8293C31.3176 24.8157 31.2913 24.8085 31.2645 24.8086H25.841C25.8143 24.8087 25.7881 24.816 25.7652 24.8297C25.7422 24.8434 25.7232 24.863 25.7103 24.8866C25.6973 24.9101 25.6908 24.9367 25.6914 24.9636C25.6921 24.9905 25.6998 25.0168 25.7138 25.0397C26.6923 26.6265 28.4046 27.6559 28.4766 27.6988C28.4997 27.7126 28.526 27.7199 28.5528 27.72V27.72Z" fill="#91DAE4"/>
</svg>
