<svg width="58" height="58" viewBox="0 0 58 58" fill="none" xmlns="http://www.w3.org/2000/svg">
<path d="M44.3 25.5H37.6209C38.3347 27.1182 38.0214 29.0656 36.6646 30.3847L29 37.8364V40.375C29 41.8248 30.2088 43 31.7 43H44.3C45.7912 43 47 41.8248 47 40.375V28.125C47 26.6752 45.7912 25.5 44.3 25.5ZM38 35.5625C37.2547 35.5625 36.65 34.9746 36.65 34.25C36.65 33.5248 37.2547 32.9375 38 32.9375C38.7453 32.9375 39.35 33.5248 39.35 34.25C39.35 34.9746 38.7453 35.5625 38 35.5625ZM35.3917 25.3523L25.5519 15.7859C24.4741 14.738 22.7264 14.738 21.6487 15.7859L11.8083 25.3523C10.7306 26.4002 10.7306 28.0993 11.8083 29.1471L21.6481 38.7141C22.7259 39.762 24.4736 39.762 25.5513 38.7141L35.3917 29.1477C36.4694 28.0993 36.4694 26.4002 35.3917 25.3523V25.3523ZM16.4 28.5625C15.6547 28.5625 15.05 27.9746 15.05 27.25C15.05 26.5248 15.6547 25.9375 16.4 25.9375C17.1453 25.9375 17.75 26.5248 17.75 27.25C17.75 27.9746 17.1453 28.5625 16.4 28.5625ZM23.6 35.5625C22.8547 35.5625 22.25 34.9746 22.25 34.25C22.25 33.5248 22.8547 32.9375 23.6 32.9375C24.3453 32.9375 24.95 33.5248 24.95 34.25C24.95 34.9746 24.3453 35.5625 23.6 35.5625ZM23.6 28.5625C22.8547 28.5625 22.25 27.9746 22.25 27.25C22.25 26.5248 22.8547 25.9375 23.6 25.9375C24.3453 25.9375 24.95 26.5248 24.95 27.25C24.95 27.9746 24.3453 28.5625 23.6 28.5625ZM23.6 21.5625C22.8547 21.5625 22.25 20.9746 22.25 20.25C22.25 19.5248 22.8547 18.9375 23.6 18.9375C24.3453 18.9375 24.95 19.5248 24.95 20.25C24.95 20.9746 24.3453 21.5625 23.6 21.5625ZM30.8 28.5625C30.0547 28.5625 29.45 27.9746 29.45 27.25C29.45 26.5248 30.0547 25.9375 30.8 25.9375C31.5453 25.9375 32.15 26.5248 32.15 27.25C32.15 27.9746 31.5453 28.5625 30.8 28.5625Z" fill="#0F455C"/>
</svg>
