<svg width="58" height="58" viewBox="0 0 58 58" fill="none" xmlns="http://www.w3.org/2000/svg">
<path d="M23.9106 37.6537H33.1949C33.2315 37.6537 33.2669 37.6401 33.2943 37.6156C33.3217 37.591 33.3393 37.5572 33.3438 37.5206C33.367 37.3203 33.3786 37.1189 33.3787 36.9174C33.3787 36.2832 33.1257 35.5419 32.6266 34.7076C32.2338 34.0508 31.6879 33.3314 31.0015 32.5774C30.2665 31.7713 29.4801 31.0143 28.6474 30.3112C28.6207 30.2893 28.5872 30.2773 28.5527 30.2773C28.5182 30.2773 28.4848 30.2893 28.458 30.3112C27.6254 31.0143 26.839 31.7713 26.1039 32.5774C25.4183 33.3314 24.8717 34.0508 24.4782 34.7076C23.9791 35.5419 23.7261 36.2853 23.7261 36.9174C23.726 37.119 23.7379 37.3204 23.7617 37.5206C23.766 37.5573 23.7835 37.5912 23.811 37.6157C23.8385 37.6403 23.8739 37.6538 23.9106 37.6537V37.6537Z" fill="#0F455C"/>
<path d="M36.9386 38.5951H36.2718C36.3506 38.1409 36.3901 37.6807 36.3899 37.2196C36.3899 35.9562 35.7881 34.3905 34.6013 32.5647C33.8835 31.4605 32.9567 30.2612 31.846 28.9998C32.9567 27.7385 33.8828 26.5399 34.6006 25.4357C35.7888 23.6106 36.3878 22.0449 36.3878 20.7814C36.3882 20.3204 36.3489 19.8602 36.2704 19.406H36.9379C37.3799 19.3969 37.8008 19.2135 38.1102 18.8952C38.4197 18.5768 38.593 18.1489 38.593 17.7032C38.593 17.2574 38.4197 16.8295 38.1102 16.5112C37.8008 16.1928 37.3799 16.0094 36.9379 16.0004H20.1671C19.9424 15.9957 19.7191 16.0364 19.5101 16.1199C19.3012 16.2034 19.1109 16.3281 18.9504 16.4867C18.7899 16.6452 18.6623 16.8345 18.5753 17.0434C18.4882 17.2523 18.4434 17.4766 18.4434 17.7032C18.4434 17.9297 18.4882 18.154 18.5753 18.3629C18.6623 18.5718 18.7899 18.7611 18.9504 18.9196C19.1109 19.0782 19.3012 19.2029 19.5101 19.2864C19.7191 19.3699 19.9424 19.4106 20.1671 19.406H20.8339C20.7547 19.8601 20.7147 20.3203 20.7144 20.7814C20.7144 22.0449 21.3176 23.6106 22.5037 25.4364C23.2209 26.5399 24.1477 27.7392 25.2576 29.0012C24.147 30.2626 23.2209 31.4612 22.5023 32.5661C21.3183 34.3919 20.7144 35.9569 20.7144 37.2196C20.7142 37.6807 20.7538 38.1409 20.8325 38.5951H20.1678C19.9431 38.5905 19.7198 38.6312 19.5108 38.7147C19.3019 38.7982 19.1116 38.9229 18.9511 39.0814C18.7906 39.24 18.663 39.4293 18.576 39.6382C18.4889 39.8471 18.4441 40.0714 18.4441 40.2979C18.4441 40.5245 18.4889 40.7488 18.576 40.9577C18.663 41.1666 18.7906 41.3559 18.9511 41.5144C19.1116 41.673 19.3019 41.7977 19.5108 41.8812C19.7198 41.9647 19.9431 42.0053 20.1678 42.0007H36.9386C37.1633 42.0053 37.3867 41.9647 37.5956 41.8812C37.8045 41.7977 37.9948 41.673 38.1554 41.5144C38.3159 41.3559 38.4434 41.1666 38.5305 40.9577C38.6175 40.7488 38.6624 40.5245 38.6624 40.2979C38.6624 40.0714 38.6175 39.8471 38.5305 39.6382C38.4434 39.4293 38.3159 39.24 38.1554 39.0814C37.9948 38.9229 37.8045 38.7982 37.5956 38.7147C37.3867 38.6312 37.1633 38.5905 36.9386 38.5951V38.5951ZM27.0288 29.5805C27.1736 29.4231 27.2541 29.2163 27.2541 29.0016C27.2541 28.7869 27.1736 28.5801 27.0288 28.4227C25.7469 27.0141 24.6985 25.6936 23.924 24.4985C22.9357 22.9764 22.4136 21.6933 22.4136 20.7814C22.4133 20.3186 22.4644 19.8573 22.5659 19.406H34.5377C34.6404 19.8571 34.6927 20.3185 34.6936 20.7814C34.6936 21.6926 34.1715 22.9779 33.1838 24.4978C32.4059 25.6957 31.3616 27.0141 30.0797 28.4206C29.9349 28.578 29.8544 28.7848 29.8544 28.9995C29.8544 29.2142 29.9349 29.421 30.0797 29.5784C31.3623 30.9877 32.4073 32.3068 33.1845 33.5026C34.1701 35.0261 34.6936 36.3085 34.6936 37.2196C34.6939 37.6824 34.6427 38.1438 34.5412 38.5951H22.5673C22.4658 38.1438 22.4147 37.6824 22.415 37.2196C22.415 36.3085 22.9371 35.0239 23.9247 33.504C24.702 32.3075 25.7469 30.9877 27.0288 29.5805Z" fill="#0F455C"/>
<path d="M28.5525 27.7202C28.5793 27.7203 28.6057 27.713 28.6287 27.6991C28.6986 27.6561 30.4159 26.6266 31.3917 25.0397C31.4057 25.0167 31.4135 24.9904 31.4142 24.9635C31.4149 24.9365 31.4086 24.9098 31.3959 24.8861C31.3828 24.8626 31.3637 24.843 31.3406 24.8293C31.3175 24.8157 31.2912 24.8085 31.2645 24.8086H25.8406C25.8139 24.8087 25.7877 24.816 25.7647 24.8297C25.7417 24.8434 25.7227 24.863 25.7098 24.8866C25.6968 24.9101 25.6903 24.9367 25.691 24.9636C25.6916 24.9906 25.6993 25.0168 25.7133 25.0397C26.6919 26.6266 28.4043 27.6561 28.4763 27.6991C28.4994 27.7128 28.5257 27.7201 28.5525 27.7202V27.7202Z" fill="#0F455C"/>
</svg>
