<svg width="58" height="58" viewBox="0 0 58 58" fill="none" xmlns="http://www.w3.org/2000/svg">
<path d="M42.5904 33.3928L38.6395 29.3406C38.1145 28.8016 37.4013 28.5006 36.6575 28.5006H33.1879C32.4135 28.5006 31.7879 29.143 31.7879 29.9381V33.4961C31.7879 34.2598 32.081 34.9876 32.606 35.5267L36.5569 39.5788C37.1038 40.1404 37.992 40.1404 38.5389 39.5788L42.586 35.4234C43.1373 34.8618 43.1373 33.9543 42.5904 33.3928ZM34.5924 32.4494C34.0105 32.4494 33.5423 31.9687 33.5423 31.3712C33.5423 30.7737 34.0105 30.293 34.5924 30.293C35.1743 30.293 35.6425 30.7737 35.6425 31.3712C35.6425 31.9642 35.1743 32.4494 34.5924 32.4494ZM24.8006 28.4961C27.8939 28.4961 30.4009 25.9219 30.4009 22.7458C30.4009 19.5741 27.8939 17 24.8006 17C21.7073 17 19.2002 19.5741 19.2002 22.7503C19.2002 25.9219 21.7073 28.4961 24.8006 28.4961V28.4961ZM30.3922 33.4916V30.2077C29.8584 30.0459 29.3027 29.9291 28.7208 29.9291H27.9901C27.0188 30.3874 25.9381 30.6479 24.8006 30.6479C23.663 30.6479 22.5867 30.3874 21.611 29.9291H20.8803C17.6339 29.9336 15 32.6381 15 35.9714V37.8403C15 39.0308 15.9407 39.9966 17.1001 39.9966H32.501C33.1792 39.9966 33.7742 39.6597 34.1592 39.1476L31.6216 36.542C30.8297 35.7288 30.3922 34.6462 30.3922 33.4916V33.4916Z" fill="#0F455C"/>
</svg>
