<svg width="58" height="58" viewBox="0 0 58 58" fill="none" xmlns="http://www.w3.org/2000/svg">
<path d="M32.9069 17.187C32.9492 17.2453 33.0076 17.291 33.0755 17.319C33.1433 17.3469 33.218 17.3559 33.2909 17.345L34.2446 17.2032L34.9061 17.881C34.9652 17.9414 35.0432 17.9816 35.1282 17.9952C35.1885 18.0057 35.2505 18.0018 35.3089 17.9838C35.3794 17.9631 35.4424 17.9237 35.4909 17.8702C35.5394 17.8167 35.5715 17.7512 35.5834 17.6811L35.7393 16.7614L36.6121 16.3644C36.6786 16.334 36.735 16.2863 36.7749 16.2266C36.8148 16.1669 36.8366 16.0977 36.8378 16.0267C36.8391 15.9557 36.8197 15.8858 36.7819 15.8249C36.7441 15.7639 36.6894 15.7144 36.6239 15.6819L35.766 15.2554L35.6436 14.3319C35.6341 14.2615 35.6045 14.1951 35.5579 14.1401C35.5114 14.0851 35.4499 14.0437 35.3803 14.0207C35.3107 13.9976 35.2358 13.9938 35.164 14.0096C35.0923 14.0254 35.0265 14.0602 34.9742 14.1101L34.289 14.7622L33.3403 14.5889H33.3324C33.2594 14.5762 33.1841 14.5836 33.1152 14.6102C33.0464 14.6368 32.9867 14.6816 32.943 14.7395C32.8993 14.7973 32.8734 14.8658 32.8682 14.9372C32.863 15.0086 32.8788 15.0799 32.9138 15.143L33.3482 15.9741L32.8842 16.79C32.8496 16.8518 32.8335 16.9215 32.8375 16.9916C32.8415 17.0616 32.8655 17.1293 32.9069 17.187V17.187Z" fill="#91DAE4"/>
<path d="M44.2705 21.8676L44.6505 21.0101C44.6796 20.945 44.6896 20.8731 44.6792 20.8027C44.6688 20.7323 44.6386 20.6661 44.5919 20.6117C44.5452 20.5573 44.4838 20.5167 44.4149 20.4947C44.3459 20.4727 44.272 20.47 44.2015 20.487L43.2755 20.7138L42.5651 20.0954H42.5593C42.5046 20.0496 42.4381 20.0195 42.3671 20.0085C42.296 19.9976 42.2233 20.0061 42.1569 20.0333C42.0905 20.0605 42.0331 20.1051 41.9911 20.1624C41.9491 20.2196 41.9241 20.2871 41.9189 20.3575L41.8509 21.2864L41.0307 21.7628C40.9681 21.7988 40.9169 21.8512 40.8831 21.9143C40.8493 21.9773 40.8341 22.0483 40.8394 22.1193C40.8447 22.1903 40.8701 22.2585 40.9129 22.3161C40.9556 22.3736 41.0139 22.4183 41.0813 22.445L41.9558 22.7956L42.1599 23.7055C42.1781 23.7865 42.2228 23.8594 42.2872 23.9132C42.3262 23.946 42.3713 23.9708 42.4201 23.9863C42.4689 24.0018 42.5204 24.0077 42.5715 24.0036C42.6226 23.9996 42.6724 23.9856 42.718 23.9626C42.7636 23.9395 42.8041 23.9079 42.8372 23.8694L43.4494 23.1577L44.3949 23.253C44.4696 23.2636 44.5457 23.2527 44.6142 23.2215C44.6826 23.1904 44.7403 23.1405 44.7803 23.0777C44.8203 23.015 44.8408 22.9422 44.8393 22.8683C44.8378 22.7943 44.8144 22.7224 44.7719 22.6613L44.2705 21.8676Z" fill="#91DAE4"/>
<path d="M27.5649 18.6685C27.6136 18.7449 27.6937 18.8006 27.7876 18.8234C27.8814 18.8463 27.9815 18.8343 28.0656 18.7902L28.4692 18.5793V19.0019C28.4692 19.0903 28.5079 19.1751 28.5767 19.2376C28.6455 19.3002 28.7388 19.3353 28.8361 19.3353C28.9334 19.3353 29.0267 19.3002 29.0955 19.2376C29.1643 19.1751 29.2029 19.0903 29.2029 19.0019V18.5793L29.6056 18.7902C29.6473 18.8143 29.694 18.8305 29.7429 18.8378C29.7917 18.8451 29.8416 18.8433 29.8897 18.8326C29.9377 18.8219 29.9829 18.8025 30.0225 18.7755C30.0621 18.7485 30.0953 18.7146 30.12 18.6756C30.1448 18.6367 30.1606 18.5936 30.1666 18.549C30.1726 18.5043 30.1685 18.4591 30.1547 18.4159C30.141 18.3727 30.1177 18.3325 30.0864 18.2977C30.055 18.2629 30.0163 18.2342 29.9725 18.2133L29.5698 18.0016L29.9725 17.7899C30.0163 17.7691 30.055 17.7404 30.0864 17.7056C30.1177 17.6708 30.141 17.6306 30.1547 17.5874C30.1685 17.5442 30.1726 17.4989 30.1666 17.4543C30.1606 17.4096 30.1448 17.3666 30.12 17.3276C30.0953 17.2887 30.0621 17.2547 30.0225 17.2277C29.9829 17.2008 29.9377 17.1813 29.8897 17.1706C29.8416 17.1599 29.7917 17.1582 29.7429 17.1655C29.694 17.1728 29.6473 17.189 29.6056 17.2131L29.2029 17.424V17.0014C29.2029 16.913 29.1643 16.8282 29.0955 16.7656C29.0267 16.7031 28.9334 16.668 28.8361 16.668C28.7388 16.668 28.6455 16.7031 28.5767 16.7656C28.5079 16.8282 28.4692 16.913 28.4692 17.0014V17.424L28.0656 17.2131C28.0239 17.189 27.9772 17.1728 27.9284 17.1655C27.8795 17.1582 27.8296 17.1599 27.7815 17.1706C27.7335 17.1813 27.6883 17.2008 27.6487 17.2277C27.6091 17.2547 27.576 17.2887 27.5512 17.3276C27.5264 17.3666 27.5106 17.4096 27.5046 17.4543C27.4987 17.4989 27.5027 17.5442 27.5165 17.5874C27.5303 17.6306 27.5535 17.6708 27.5849 17.7056C27.6162 17.7404 27.6549 17.7691 27.6988 17.7899L28.1023 18.0016L27.6988 18.2133C27.6147 18.2576 27.5533 18.3304 27.5282 18.4157C27.5031 18.5011 27.5163 18.5919 27.5649 18.6685Z" fill="#91DAE4"/>
<path d="M40.8014 28.0028C40.7646 27.9263 40.7043 27.8706 40.6335 27.8478C40.5627 27.825 40.4873 27.8369 40.4238 27.8811L40.1196 28.092V27.6694C40.1196 27.5809 40.0904 27.4961 40.0386 27.4336C39.9867 27.3711 39.9164 27.3359 39.843 27.3359C39.7696 27.3359 39.6993 27.3711 39.6474 27.4336C39.5956 27.4961 39.5664 27.5809 39.5664 27.6694V28.092L39.2629 27.8811C39.2314 27.8569 39.1962 27.8407 39.1594 27.8335C39.1226 27.8262 39.0849 27.8279 39.0487 27.8386C39.0124 27.8493 38.9784 27.8687 38.9485 27.8957C38.9187 27.9227 38.8937 27.9567 38.875 27.9956C38.8563 28.0345 38.8444 28.0776 38.8399 28.1222C38.8354 28.1669 38.8384 28.2122 38.8488 28.2553C38.8592 28.2985 38.8768 28.3387 38.9004 28.3735C38.924 28.4083 38.9532 28.437 38.9863 28.4579L39.2898 28.6696L38.9863 28.8813C38.9532 28.9022 38.924 28.9308 38.9004 28.9657C38.8768 29.0005 38.8592 29.0407 38.8488 29.0839C38.8384 29.127 38.8354 29.1723 38.8399 29.217C38.8444 29.2616 38.8563 29.3047 38.875 29.3436C38.8937 29.3825 38.9187 29.4165 38.9485 29.4435C38.9784 29.4705 39.0124 29.4899 39.0487 29.5006C39.0849 29.5113 39.1226 29.513 39.1594 29.5057C39.1962 29.4984 39.2314 29.4822 39.2629 29.4581L39.5664 29.2472V29.6698C39.5664 29.7583 39.5956 29.8431 39.6474 29.9056C39.6993 29.9681 39.7696 30.0033 39.843 30.0033C39.9164 30.0033 39.9867 29.9681 40.0386 29.9056C40.0904 29.8431 40.1196 29.7583 40.1196 29.6698V29.2472L40.4238 29.4581C40.487 29.498 40.5606 29.5069 40.6291 29.4829C40.6976 29.4589 40.7558 29.404 40.7915 29.3295C40.8272 29.2551 40.8377 29.1669 40.8207 29.0834C40.8037 28.9998 40.7606 28.9274 40.7004 28.8813L40.3962 28.6696L40.7004 28.4579C40.7638 28.4136 40.8101 28.3408 40.829 28.2555C40.8479 28.1702 40.838 28.0793 40.8014 28.0028V28.0028Z" fill="#91DAE4"/>
<path d="M43.3339 15.5454L42.9263 15.3337L43.3339 15.1219C43.4146 15.0758 43.4723 15.0034 43.4951 14.9199C43.5178 14.8364 43.5038 14.7482 43.456 14.6737C43.4081 14.5993 43.3302 14.5443 43.2384 14.5204C43.1466 14.4964 43.048 14.5053 42.9633 14.5451L42.5557 14.756V14.3334C42.5557 14.245 42.5166 14.1602 42.4471 14.0977C42.3776 14.0351 42.2834 14 42.1851 14C42.0868 14 41.9925 14.0351 41.923 14.0977C41.8535 14.1602 41.8145 14.245 41.8145 14.3334V14.756L41.4078 14.5451C41.3656 14.521 41.3184 14.5048 41.2691 14.4975C41.2198 14.4902 41.1693 14.492 41.1208 14.5027C41.0723 14.5134 41.0266 14.5328 40.9866 14.5598C40.9466 14.5867 40.9131 14.6207 40.8881 14.6597C40.8631 14.6986 40.8471 14.7417 40.8411 14.7863C40.8351 14.8309 40.8391 14.8762 40.8531 14.9194C40.867 14.9626 40.8905 15.0028 40.9221 15.0376C40.9538 15.0724 40.9929 15.1011 41.0372 15.1219L41.4439 15.3337L41.0372 15.5454C40.9929 15.5662 40.9538 15.5949 40.9221 15.6297C40.8905 15.6645 40.867 15.7047 40.8531 15.7479C40.8391 15.7911 40.8351 15.8364 40.8411 15.881C40.8471 15.9257 40.8631 15.9687 40.8881 16.0077C40.9131 16.0466 40.9466 16.0806 40.9866 16.1076C41.0266 16.1345 41.0723 16.154 41.1208 16.1647C41.1693 16.1753 41.2198 16.1771 41.2691 16.1698C41.3184 16.1625 41.3656 16.1463 41.4078 16.1222L41.8145 15.9113V16.3339C41.8145 16.4223 41.8535 16.5071 41.923 16.5697C41.9925 16.6322 42.0868 16.6673 42.1851 16.6673C42.2834 16.6673 42.3776 16.6322 42.4471 16.5697C42.5166 16.5071 42.5557 16.4223 42.5557 16.3339V15.9113L42.9633 16.1222C43.048 16.162 43.1466 16.1709 43.2384 16.147C43.3302 16.123 43.4081 16.0681 43.456 15.9936C43.5038 15.9192 43.5178 15.831 43.4951 15.7474C43.4723 15.6639 43.4146 15.5915 43.3339 15.5454V15.5454Z" fill="#91DAE4"/>
<path d="M31.6114 24.5208C31.6453 24.5504 31.6855 24.5739 31.7298 24.59C31.7742 24.606 31.8217 24.6142 31.8696 24.6142C31.9176 24.6142 31.9651 24.606 32.0094 24.59C32.0537 24.5739 32.094 24.5504 32.1279 24.5208C32.3314 24.3425 32.648 24.4078 33.1472 24.5288C33.4323 24.6096 33.7284 24.6567 34.0278 24.6689C34.1851 24.6733 34.3417 24.6493 34.4879 24.5984C34.6341 24.5476 34.7667 24.4711 34.8774 24.3735C35.393 23.9237 35.206 23.3384 35.06 22.8607C34.9212 22.4251 34.8464 22.1488 35.0508 21.9705C35.2552 21.7921 35.571 21.8574 36.0702 21.9784C36.6122 22.109 37.2857 22.273 37.804 21.8192C38.3224 21.3653 38.1335 20.7841 37.9866 20.3063C37.8479 19.8708 37.7739 19.5953 37.9774 19.4169C38.1809 19.2386 38.4985 19.3039 38.9977 19.4249C39.5397 19.5555 40.2132 19.7187 40.7316 19.2656C40.8001 19.2059 40.8385 19.1248 40.8385 19.0403C40.8385 18.9558 40.8001 18.8747 40.7316 18.815C40.6631 18.7552 40.5702 18.7216 40.4733 18.7216C40.3764 18.7216 40.2835 18.7552 40.215 18.815C40.0106 18.9933 39.6949 18.928 39.1957 18.8078C38.6536 18.6764 37.9802 18.5132 37.4618 18.9671C36.9435 19.4209 37.1333 20.0022 37.2793 20.4799C37.418 20.9155 37.4919 21.1918 37.2884 21.3701C37.0849 21.5485 36.7674 21.4832 36.2682 21.3621C35.727 21.2316 35.0527 21.0683 34.5343 21.5214C34.016 21.9745 34.2058 22.5565 34.3518 23.0343C34.4905 23.4698 34.5644 23.7453 34.3609 23.9237C34.1574 24.102 33.8408 24.0367 33.3416 23.9157C32.7995 23.7843 32.1261 23.6211 31.6077 24.071C31.5399 24.1311 31.5023 24.2122 31.5029 24.2966C31.5036 24.3809 31.5426 24.4615 31.6114 24.5208Z" fill="#91DAE4"/>
<path d="M39.5018 25.7633C39.5127 25.6786 39.4905 25.5929 39.44 25.5251C39.3894 25.4573 39.3148 25.4129 39.2324 25.4016C36.1833 24.9828 34.3544 26.701 34.2776 26.7711C34.2459 26.7995 34.22 26.8342 34.2016 26.8731C34.1831 26.912 34.1725 26.9544 34.1703 26.9976C34.1682 27.0408 34.1745 27.0841 34.1889 27.1247C34.2034 27.1654 34.2256 27.2026 34.2544 27.2343C34.2831 27.2659 34.3178 27.2912 34.3562 27.3088C34.3947 27.3263 34.4362 27.3357 34.4783 27.3364C34.5204 27.3371 34.5622 27.329 34.6012 27.3127C34.6402 27.2964 34.6756 27.2722 34.7053 27.2415C34.7217 27.2262 36.3916 25.6586 39.1494 26.0332C39.2308 26.0448 39.3134 26.0229 39.3793 25.9725C39.4453 25.922 39.4893 25.8469 39.5018 25.7633V25.7633Z" fill="#91DAE4"/>
<path d="M30.2723 23.1655C30.3399 23.2745 30.4313 23.3358 30.5267 23.3358C30.6221 23.3358 30.7136 23.2745 30.7811 23.1655C30.8153 23.1116 31.6203 21.8142 32.148 19.4498C32.1805 19.3042 32.1759 19.1437 32.1353 19.0036C32.0947 18.8635 32.0213 18.7553 31.9314 18.7027C31.8415 18.6501 31.7424 18.6575 31.6558 18.7232C31.5693 18.789 31.5024 18.9077 31.4699 19.0533C31.0044 21.1538 30.2895 22.32 30.2759 22.3419C30.2081 22.4504 30.1696 22.5981 30.169 22.7525C30.1683 22.9069 30.2055 23.0554 30.2723 23.1655V23.1655Z" fill="#91DAE4"/>
<path d="M35.1004 31.6007L25.277 21.7772C24.7599 21.2601 23.8809 21.4547 23.6304 22.1417L18.0072 37.563C17.9051 37.8433 17.6831 38.0632 17.402 38.1629L14.6553 39.1371C13.9619 39.383 13.7625 40.2681 14.2834 40.7876L16.4013 42.9C16.9162 43.4136 17.7897 43.2232 18.0442 42.542L19.0252 39.9165C19.1235 39.6533 19.3281 39.4435 19.5888 39.3387L34.7664 33.2356C35.4318 32.968 35.6075 32.1077 35.1004 31.6007Z" fill="#91DAE4"/>
</svg>
