<svg width="58" height="58" viewBox="0 0 58 58" fill="none" xmlns="http://www.w3.org/2000/svg">
<path d="M32.9074 17.187C32.9497 17.2453 33.0081 17.2911 33.0759 17.319C33.1438 17.3469 33.2185 17.356 33.2914 17.3451L34.2451 17.2032L34.9066 17.881C34.9657 17.9415 35.0437 17.9816 35.1287 17.9953C35.189 18.0058 35.2511 18.0018 35.3094 17.9839C35.3799 17.9631 35.443 17.9238 35.4915 17.8703C35.54 17.8168 35.572 17.7512 35.5839 17.6811L35.7399 16.7615L36.6126 16.3645C36.6792 16.3341 36.7356 16.2863 36.7755 16.2266C36.8153 16.167 36.8371 16.0977 36.8384 16.0267C36.8396 15.9557 36.8202 15.8858 36.7824 15.8249C36.7446 15.7639 36.6899 15.7144 36.6245 15.6819L35.7665 15.2554L35.6441 14.3319C35.6346 14.2615 35.605 14.1951 35.5585 14.1401C35.5119 14.0851 35.4504 14.0437 35.3808 14.0207C35.3112 13.9976 35.2363 13.9938 35.1645 14.0096C35.0928 14.0254 35.027 14.0602 34.9747 14.1101L34.2895 14.7622L33.3408 14.589H33.3329C33.2599 14.5762 33.1846 14.5836 33.1157 14.6102C33.0468 14.6368 32.9871 14.6816 32.9435 14.7395C32.8998 14.7973 32.8738 14.8658 32.8687 14.9372C32.8635 15.0086 32.8793 15.0799 32.9143 15.143L33.3487 15.9741L32.8846 16.79C32.8501 16.8518 32.834 16.9216 32.838 16.9916C32.842 17.0617 32.866 17.1293 32.9074 17.187V17.187Z" fill="#0F455C"/>
<path d="M44.271 21.8676L44.651 21.0101C44.6801 20.945 44.6901 20.8731 44.6797 20.8027C44.6694 20.7323 44.6391 20.6661 44.5924 20.6117C44.5457 20.5573 44.4844 20.5167 44.4154 20.4947C44.3464 20.4727 44.2725 20.47 44.2021 20.487L43.276 20.7138L42.5656 20.0954H42.5598C42.5051 20.0496 42.4386 20.0195 42.3676 20.0085C42.2965 19.9976 42.2238 20.0061 42.1574 20.0333C42.091 20.0605 42.0336 20.1051 41.9916 20.1624C41.9496 20.2196 41.9246 20.2871 41.9194 20.3575L41.8514 21.2864L41.0312 21.7628C40.9685 21.7988 40.9174 21.8513 40.8836 21.9143C40.8498 21.9773 40.8346 22.0483 40.8399 22.1194C40.8451 22.1904 40.8706 22.2585 40.9133 22.3161C40.9561 22.3736 41.0144 22.4183 41.0817 22.445L41.9563 22.7957L42.1604 23.7056C42.1787 23.7865 42.2233 23.8595 42.2877 23.9133C42.3267 23.946 42.3718 23.9708 42.4206 23.9863C42.4694 24.0019 42.5209 24.0077 42.572 24.0037C42.6231 23.9996 42.6729 23.9856 42.7185 23.9626C42.7641 23.9396 42.8046 23.9079 42.8377 23.8695L43.4499 23.1577L44.3954 23.253C44.4701 23.2636 44.5463 23.2527 44.6147 23.2216C44.6831 23.1905 44.7409 23.1405 44.7808 23.0778C44.8208 23.015 44.8413 22.9423 44.8398 22.8683C44.8383 22.7944 44.8149 22.7224 44.7725 22.6613L44.271 21.8676Z" fill="#0F455C"/>
<path d="M27.5654 18.6685C27.6141 18.7449 27.6942 18.8006 27.788 18.8235C27.8819 18.8463 27.9819 18.8343 28.0661 18.7902L28.4697 18.5793V19.0019C28.4697 19.0903 28.5084 19.1751 28.5772 19.2377C28.646 19.3002 28.7393 19.3353 28.8366 19.3353C28.9339 19.3353 29.0272 19.3002 29.096 19.2377C29.1648 19.1751 29.2034 19.0903 29.2034 19.0019V18.5793L29.6061 18.7902C29.6478 18.8143 29.6945 18.8305 29.7434 18.8378C29.7922 18.8451 29.8421 18.8433 29.8902 18.8326C29.9383 18.8219 29.9834 18.8025 30.023 18.7755C30.0626 18.7486 30.0958 18.7146 30.1205 18.6757C30.1453 18.6367 30.1611 18.5936 30.1671 18.549C30.1731 18.5044 30.169 18.4591 30.1553 18.4159C30.1415 18.3727 30.1182 18.3325 30.0869 18.2977C30.0556 18.2629 30.0168 18.2342 29.973 18.2134L29.5703 18.0016L29.973 17.7899C30.0168 17.7691 30.0556 17.7404 30.0869 17.7056C30.1182 17.6708 30.1415 17.6306 30.1553 17.5874C30.169 17.5442 30.1731 17.4989 30.1671 17.4543C30.1611 17.4096 30.1453 17.3666 30.1205 17.3276C30.0958 17.2887 30.0626 17.2547 30.023 17.2277C29.9834 17.2008 29.9383 17.1813 29.8902 17.1706C29.8421 17.1599 29.7922 17.1582 29.7434 17.1655C29.6945 17.1728 29.6478 17.189 29.6061 17.2131L29.2034 17.424V17.0014C29.2034 16.913 29.1648 16.8282 29.096 16.7656C29.0272 16.7031 28.9339 16.668 28.8366 16.668C28.7393 16.668 28.646 16.7031 28.5772 16.7656C28.5084 16.8282 28.4697 16.913 28.4697 17.0014V17.424L28.0661 17.2131C28.0244 17.189 27.9777 17.1728 27.9289 17.1655C27.88 17.1582 27.8301 17.1599 27.782 17.1706C27.734 17.1813 27.6888 17.2008 27.6492 17.2277C27.6096 17.2547 27.5764 17.2887 27.5517 17.3276C27.5269 17.3666 27.5111 17.4096 27.5051 17.4543C27.4992 17.4989 27.5032 17.5442 27.517 17.5874C27.5308 17.6306 27.554 17.6708 27.5853 17.7056C27.6167 17.7404 27.6554 17.7691 27.6993 17.7899L28.1028 18.0016L27.6993 18.2134C27.6152 18.2576 27.5538 18.3304 27.5287 18.4157C27.5036 18.5011 27.5168 18.592 27.5654 18.6685Z" fill="#0F455C"/>
<path d="M40.8024 28.0028C40.7656 27.9263 40.7053 27.8706 40.6345 27.8478C40.5637 27.825 40.4883 27.8369 40.4248 27.8811L40.1206 28.092V27.6694C40.1206 27.5809 40.0914 27.4961 40.0396 27.4336C39.9877 27.3711 39.9173 27.3359 39.844 27.3359C39.7706 27.3359 39.7003 27.3711 39.6484 27.4336C39.5965 27.4961 39.5674 27.5809 39.5674 27.6694V28.092L39.2638 27.8811C39.2324 27.857 39.1972 27.8408 39.1603 27.8335C39.1235 27.8262 39.0859 27.8279 39.0497 27.8386C39.0134 27.8493 38.9794 27.8687 38.9495 27.8957C38.9197 27.9227 38.8947 27.9567 38.876 27.9956C38.8573 28.0345 38.8454 28.0776 38.8409 28.1222C38.8364 28.1669 38.8394 28.2122 38.8498 28.2554C38.8602 28.2985 38.8777 28.3387 38.9014 28.3736C38.925 28.4084 38.9542 28.437 38.9873 28.4579L39.2908 28.6696L38.9873 28.8813C38.9542 28.9022 38.925 28.9309 38.9014 28.9657C38.8777 29.0005 38.8602 29.0407 38.8498 29.0839C38.8394 29.1271 38.8364 29.1723 38.8409 29.217C38.8454 29.2616 38.8573 29.3047 38.876 29.3436C38.8947 29.3826 38.9197 29.4165 38.9495 29.4435C38.9794 29.4705 39.0134 29.4899 39.0497 29.5006C39.0859 29.5113 39.1235 29.5131 39.1603 29.5058C39.1972 29.4985 39.2324 29.4823 39.2638 29.4581L39.5674 29.2473V29.6699C39.5674 29.7583 39.5965 29.8431 39.6484 29.9056C39.7003 29.9682 39.7706 30.0033 39.844 30.0033C39.9173 30.0033 39.9877 29.9682 40.0396 29.9056C40.0914 29.8431 40.1206 29.7583 40.1206 29.6699V29.2473L40.4248 29.4581C40.488 29.498 40.5616 29.5069 40.6301 29.4829C40.6986 29.459 40.7568 29.404 40.7925 29.3296C40.8282 29.2551 40.8387 29.1669 40.8217 29.0834C40.8047 28.9999 40.7616 28.9275 40.7014 28.8813L40.3972 28.6696L40.7014 28.4579C40.7648 28.4136 40.8111 28.3408 40.83 28.2555C40.8489 28.1702 40.839 28.0793 40.8024 28.0028V28.0028Z" fill="#0F455C"/>
<path d="M43.3344 15.5454L42.9268 15.3337L43.3344 15.122C43.4151 15.0758 43.4728 15.0034 43.4956 14.9199C43.5183 14.8364 43.5043 14.7482 43.4565 14.6737C43.4086 14.5993 43.3307 14.5443 43.2389 14.5204C43.1471 14.4964 43.0485 14.5053 42.9638 14.5451L42.5562 14.756V14.3334C42.5562 14.245 42.5171 14.1602 42.4476 14.0977C42.3781 14.0351 42.2839 14 42.1856 14C42.0873 14 41.993 14.0351 41.9235 14.0977C41.854 14.1602 41.815 14.245 41.815 14.3334V14.756L41.4083 14.5451C41.3661 14.521 41.3189 14.5048 41.2696 14.4975C41.2203 14.4902 41.1698 14.492 41.1213 14.5027C41.0727 14.5134 41.0271 14.5328 40.9871 14.5598C40.9471 14.5867 40.9136 14.6207 40.8886 14.6597C40.8636 14.6986 40.8476 14.7417 40.8416 14.7863C40.8355 14.831 40.8396 14.8762 40.8535 14.9194C40.8675 14.9626 40.891 15.0028 40.9226 15.0376C40.9542 15.0724 40.9934 15.1011 41.0377 15.122L41.4444 15.3337L41.0377 15.5454C40.9934 15.5662 40.9542 15.5949 40.9226 15.6297C40.891 15.6645 40.8675 15.7047 40.8535 15.7479C40.8396 15.7911 40.8355 15.8364 40.8416 15.881C40.8476 15.9257 40.8636 15.9688 40.8886 16.0077C40.9136 16.0466 40.9471 16.0806 40.9871 16.1076C41.0271 16.1346 41.0727 16.154 41.1213 16.1647C41.1698 16.1754 41.2203 16.1771 41.2696 16.1698C41.3189 16.1625 41.3661 16.1463 41.4083 16.1222L41.815 15.9113V16.3339C41.815 16.4224 41.854 16.5072 41.9235 16.5697C41.993 16.6322 42.0873 16.6673 42.1856 16.6673C42.2839 16.6673 42.3781 16.6322 42.4476 16.5697C42.5171 16.5072 42.5562 16.4224 42.5562 16.3339V15.9113L42.9638 16.1222C43.0485 16.1621 43.1471 16.1709 43.2389 16.147C43.3307 16.123 43.4086 16.0681 43.4565 15.9936C43.5043 15.9192 43.5183 15.831 43.4956 15.7474C43.4728 15.6639 43.4151 15.5915 43.3344 15.5454V15.5454Z" fill="#0F455C"/>
<path d="M31.6119 24.5209C31.6458 24.5505 31.686 24.574 31.7303 24.59C31.7746 24.6061 31.8221 24.6143 31.8701 24.6143C31.9181 24.6143 31.9656 24.6061 32.0099 24.59C32.0542 24.574 32.0945 24.5505 32.1284 24.5209C32.3319 24.3425 32.6485 24.4078 33.1477 24.5289C33.4328 24.6097 33.729 24.6568 34.0284 24.669C34.1856 24.6733 34.3423 24.6493 34.4884 24.5985C34.6346 24.5477 34.7672 24.4711 34.878 24.3736C35.3936 23.9237 35.2065 23.3385 35.0605 22.8607C34.9218 22.4252 34.8469 22.1489 35.0514 21.9705C35.2558 21.7922 35.5715 21.8574 36.0707 21.9785C36.6128 22.1091 37.2863 22.2731 37.8046 21.8192C38.3229 21.3654 38.134 20.7841 37.9871 20.3064C37.8484 19.8708 37.7745 19.5953 37.978 19.4169C38.1815 19.2386 38.4991 19.3039 38.9983 19.4249C39.5403 19.5555 40.2138 19.7187 40.7321 19.2657C40.8006 19.2059 40.8391 19.1248 40.8391 19.0403C40.8391 18.9558 40.8006 18.8747 40.7321 18.815C40.6637 18.7552 40.5708 18.7216 40.4739 18.7216C40.377 18.7216 40.2841 18.7552 40.2156 18.815C40.0112 18.9933 39.6955 18.928 39.1963 18.8078C38.6542 18.6764 37.9807 18.5132 37.4624 18.9671C36.944 19.4209 37.1339 20.0022 37.2799 20.4799C37.4186 20.9155 37.4925 21.1918 37.289 21.3701C37.0855 21.5485 36.7679 21.4832 36.2687 21.3622C35.7276 21.2316 35.0532 21.0684 34.5348 21.5214C34.0165 21.9745 34.2063 22.5565 34.3523 23.0343C34.491 23.4698 34.565 23.7453 34.3615 23.9237C34.1579 24.1021 33.8413 24.0368 33.3421 23.9157C32.8 23.7844 32.1266 23.6211 31.6082 24.071C31.5404 24.1311 31.5027 24.2123 31.5034 24.2966C31.5041 24.381 31.5431 24.4616 31.6119 24.5209Z" fill="#0F455C"/>
<path d="M39.5029 25.7633C39.5138 25.6786 39.4915 25.5929 39.441 25.5251C39.3905 25.4573 39.3158 25.4129 39.2334 25.4016C36.1842 24.9828 34.3554 26.701 34.2786 26.7711C34.2468 26.7995 34.221 26.8342 34.2025 26.8731C34.1841 26.912 34.1735 26.9544 34.1713 26.9976C34.1691 27.0408 34.1755 27.0841 34.1899 27.1247C34.2043 27.1654 34.2266 27.2027 34.2553 27.2343C34.2841 27.2659 34.3187 27.2912 34.3572 27.3088C34.3957 27.3263 34.4372 27.3357 34.4793 27.3364C34.5214 27.3371 34.5632 27.329 34.6022 27.3127C34.6412 27.2964 34.6766 27.2722 34.7063 27.2415C34.7227 27.2262 36.3926 25.6586 39.1504 26.0332C39.2318 26.0448 39.3144 26.023 39.3804 25.9725C39.4463 25.922 39.4903 25.8469 39.5029 25.7633V25.7633Z" fill="#0F455C"/>
<path d="M30.2733 23.1655C30.3408 23.2746 30.4323 23.3358 30.5277 23.3358C30.6231 23.3358 30.7146 23.2746 30.7821 23.1655C30.8163 23.1116 31.6213 21.8142 32.149 19.4498C32.1815 19.3042 32.1769 19.1437 32.1363 19.0036C32.0957 18.8635 32.0223 18.7553 31.9324 18.7027C31.8425 18.6501 31.7434 18.6575 31.6568 18.7232C31.5703 18.789 31.5034 18.9077 31.4709 19.0533C31.0054 21.1539 30.2904 22.32 30.2769 22.3419C30.2091 22.4505 30.1706 22.5981 30.1699 22.7525C30.1693 22.9069 30.2064 23.0555 30.2733 23.1655V23.1655Z" fill="#0F455C"/>
<path d="M35.1007 31.6008L25.2771 21.7772C24.76 21.2601 23.881 21.4547 23.6305 22.1417L18.0073 37.5632C17.9051 37.8435 17.6832 38.0634 17.4021 38.1631L14.6553 39.1373C13.9619 39.3832 13.7625 40.2683 14.2834 40.7878L16.4013 42.9003C16.9162 43.4138 17.7897 43.2235 18.0443 42.5422L19.0252 39.9167C19.1236 39.6535 19.3282 39.4438 19.5889 39.3389L34.7667 33.2357C35.432 32.9681 35.6078 32.1079 35.1007 31.6008Z" fill="#0F455C"/>
</svg>
